<svg version="1.1" xmlns="http://www.w3.org/2000/svg" xmlns:xlink="http://www.w3.org/1999/xlink" width="1573" height="936"><defs/><g><g transform="translate(2,-14) scale(1,1)"><rect fill="#C0C0C0" stroke="none" x="87" y="311" width="79.07177734375" height="44" opacity="0.2"/></g><g transform="translate(2,-14) scale(1,1)"><rect fill="#ff0000" stroke="none" x="80" y="304" width="79.07177734375" height="44"/></g><g transform="translate(2,-14) scale(1,1)"><path fill="none" stroke="#000000" d="M 80 304 L 159.07177734375 304 L 159.07177734375 348 L 80 348 L 80 304 Z Z" stroke-miterlimit="10"/></g><g transform="translate(2,-14) scale(1,1)"><path fill="none" stroke="#000000" d="M 80 329 L 159.07177734375 329" stroke-miterlimit="10"/></g><g transform="translate(2,-14) scale(1,1)"><path fill="none" stroke="#000000" d="M 80 339 L 159.07177734375 339" stroke-miterlimit="10"/></g><g transform="translate(2,-14) scale(1,1)"><g><path fill="none" stroke="none"/><text fill="#000000" stroke="none" font-family="Arial" font-size="13px" font-style="normal" font-weight="bold" text-decoration="none" x="99.29638671875" y="323.5">header</text></g></g><g transform="translate(2,-14) scale(1,1)"><rect fill="#C0C0C0" stroke="none" x="95" y="199" width="73.27001953125" height="44" opacity="0.2"/></g><g transform="translate(2,-14) scale(1,1)"><rect fill="#ff0000" stroke="none" x="88" y="192" width="73.27001953125" height="44"/></g><g transform="translate(2,-14) scale(1,1)"><path fill="none" stroke="#000000" d="M 88 192 L 161.27001953125 192 L 161.27001953125 236 L 88 236 L 88 192 Z Z" stroke-miterlimit="10"/></g><g transform="translate(2,-14) scale(1,1)"><path fill="none" stroke="#000000" d="M 88 217 L 161.27001953125 217" stroke-miterlimit="10"/></g><g transform="translate(2,-14) scale(1,1)"><path fill="none" stroke="#000000" d="M 88 227 L 161.27001953125 227" stroke-miterlimit="10"/></g><g transform="translate(2,-14) scale(1,1)"><g><path fill="none" stroke="none"/><text fill="#000000" stroke="none" font-family="Arial" font-size="13px" font-style="normal" font-weight="bold" text-decoration="none" x="108.013671875" y="211.5">footer</text></g></g><g transform="translate(2,-14) scale(1,1)"><rect fill="#C0C0C0" stroke="none" x="63" y="255" width="102.8818359375" height="44" opacity="0.2"/></g><g transform="translate(2,-14) scale(1,1)"><rect fill="#ff0000" stroke="none" x="56" y="248" width="102.8818359375" height="44"/></g><g transform="translate(2,-14) scale(1,1)"><path fill="none" stroke="#000000" d="M 56 248 L 158.8818359375 248 L 158.8818359375 292 L 56 292 L 56 248 Z Z" stroke-miterlimit="10"/></g><g transform="translate(2,-14) scale(1,1)"><path fill="none" stroke="#000000" d="M 56 273 L 158.8818359375 273" stroke-miterlimit="10"/></g><g transform="translate(2,-14) scale(1,1)"><path fill="none" stroke="#000000" d="M 56 283 L 158.8818359375 283" stroke-miterlimit="10"/></g><g transform="translate(2,-14) scale(1,1)"><g><path fill="none" stroke="none"/><text fill="#000000" stroke="none" font-family="Arial" font-size="13px" font-style="normal" font-weight="bold" text-decoration="none" x="76.73095703125" y="267.5">footerMain</text></g></g><g transform="translate(2,-14) scale(1,1)"><rect fill="#C0C0C0" stroke="none" x="670" y="551" width="50.919921875" height="44" opacity="0.2"/></g><g transform="translate(2,-14) scale(1,1)"><rect fill="#5656ff" stroke="none" x="663" y="544" width="50.919921875" height="44"/></g><g transform="translate(2,-14) scale(1,1)"><path fill="none" stroke="#000000" d="M 663 544 L 713.919921875 544 L 713.919921875 588 L 663 588 L 663 544 Z Z" stroke-miterlimit="10"/></g><g transform="translate(2,-14) scale(1,1)"><path fill="none" stroke="#000000" d="M 663 569 L 713.919921875 569" stroke-miterlimit="10"/></g><g transform="translate(2,-14) scale(1,1)"><path fill="none" stroke="#000000" d="M 663 579 L 713.919921875 579" stroke-miterlimit="10"/></g><g transform="translate(2,-14) scale(1,1)"><g><path fill="none" stroke="none"/><text fill="#000000" stroke="none" font-family="Arial" font-size="13px" font-style="normal" font-weight="bold" text-decoration="none" x="674.736328125" y="563.5">User</text></g></g><g transform="translate(2,-14) scale(1,1)"><rect fill="#C0C0C0" stroke="none" x="670" y="455" width="50.919921875" height="44" opacity="0.2"/></g><g transform="translate(2,-14) scale(1,1)"><rect fill="#5656ff" stroke="none" x="663" y="448" width="50.919921875" height="44"/></g><g transform="translate(2,-14) scale(1,1)"><path fill="none" stroke="#000000" d="M 663 448 L 713.919921875 448 L 713.919921875 492 L 663 492 L 663 448 Z Z" stroke-miterlimit="10"/></g><g transform="translate(2,-14) scale(1,1)"><path fill="none" stroke="#000000" d="M 663 473 L 713.919921875 473" stroke-miterlimit="10"/></g><g transform="translate(2,-14) scale(1,1)"><path fill="none" stroke="#000000" d="M 663 483 L 713.919921875 483" stroke-miterlimit="10"/></g><g transform="translate(2,-14) scale(1,1)"><g><path fill="none" stroke="none"/><text fill="#000000" stroke="none" font-family="Arial" font-size="13px" font-style="normal" font-weight="bold" text-decoration="none" x="673.285888671875" y="467.5">Hotel</text></g></g><g transform="translate(2,-14) scale(1,1)"><rect fill="#C0C0C0" stroke="none" x="666" y="767" width="58.14990234375" height="44" opacity="0.2"/></g><g transform="translate(2,-14) scale(1,1)"><rect fill="#5656ff" stroke="none" x="659" y="760" width="58.14990234375" height="44"/></g><g transform="translate(2,-14) scale(1,1)"><path fill="none" stroke="#000000" d="M 659 760 L 717.14990234375 760 L 717.14990234375 804 L 659 804 L 659 760 Z Z" stroke-miterlimit="10"/></g><g transform="translate(2,-14) scale(1,1)"><path fill="none" stroke="#000000" d="M 659 785 L 717.14990234375 785" stroke-miterlimit="10"/></g><g transform="translate(2,-14) scale(1,1)"><path fill="none" stroke="#000000" d="M 659 795 L 717.14990234375 795" stroke-miterlimit="10"/></g><g transform="translate(2,-14) scale(1,1)"><g><path fill="none" stroke="none"/><text fill="#000000" stroke="none" font-family="Arial" font-size="13px" font-style="normal" font-weight="bold" text-decoration="none" x="672.1708984375" y="779.5">Login</text></g></g><g transform="translate(2,-14) scale(1,1)"><rect fill="#C0C0C0" stroke="none" x="654" y="375" width="83.419921875" height="44" opacity="0.2"/></g><g transform="translate(2,-14) scale(1,1)"><rect fill="#5656ff" stroke="none" x="647" y="368" width="83.419921875" height="44"/></g><g transform="translate(2,-14) scale(1,1)"><path fill="none" stroke="#000000" d="M 647 368 L 730.419921875 368 L 730.419921875 412 L 647 412 L 647 368 Z Z" stroke-miterlimit="10"/></g><g transform="translate(2,-14) scale(1,1)"><path fill="none" stroke="#000000" d="M 647 393 L 730.419921875 393" stroke-miterlimit="10"/></g><g transform="translate(2,-14) scale(1,1)"><path fill="none" stroke="#000000" d="M 647 403 L 730.419921875 403" stroke-miterlimit="10"/></g><g transform="translate(2,-14) scale(1,1)"><g><path fill="none" stroke="none"/><text fill="#000000" stroke="none" font-family="Arial" font-size="13px" font-style="normal" font-weight="bold" text-decoration="none" x="654.0263671875" y="387.5">Reservation</text></g></g><g transform="translate(2,-14) scale(1,1)"><rect fill="#C0C0C0" stroke="none" x="111" y="799" width="58.14990234375" height="44" opacity="0.2"/></g><g transform="translate(2,-14) scale(1,1)"><rect fill="#ff0000" stroke="none" x="104" y="792" width="58.14990234375" height="44"/></g><g transform="translate(2,-14) scale(1,1)"><path fill="none" stroke="#000000" d="M 104 792 L 162.14990234375 792 L 162.14990234375 836 L 104 836 L 104 792 Z Z" stroke-miterlimit="10"/></g><g transform="translate(2,-14) scale(1,1)"><path fill="none" stroke="#000000" d="M 104 817 L 162.14990234375 817" stroke-miterlimit="10"/></g><g transform="translate(2,-14) scale(1,1)"><path fill="none" stroke="#000000" d="M 104 827 L 162.14990234375 827" stroke-miterlimit="10"/></g><g transform="translate(2,-14) scale(1,1)"><g><path fill="none" stroke="none"/><text fill="#000000" stroke="none" font-family="Arial" font-size="13px" font-style="normal" font-weight="bold" text-decoration="none" x="119.351318359375" y="811.5">error</text></g></g><g transform="translate(2,-14) scale(1,1)"><rect fill="#C0C0C0" stroke="none" x="215" y="255" width="75.44091796875" height="44" opacity="0.2"/></g><g transform="translate(2,-14) scale(1,1)"><rect fill="#27b227" stroke="none" x="208" y="248" width="75.44091796875" height="44"/></g><g transform="translate(2,-14) scale(1,1)"><path fill="none" stroke="#000000" d="M 208 248 L 283.44091796875 248 L 283.44091796875 292 L 208 292 L 208 248 Z Z" stroke-miterlimit="10"/></g><g transform="translate(2,-14) scale(1,1)"><path fill="none" stroke="#000000" d="M 208 273 L 283.44091796875 273" stroke-miterlimit="10"/></g><g transform="translate(2,-14) scale(1,1)"><path fill="none" stroke="#000000" d="M 208 283 L 283.44091796875 283" stroke-miterlimit="10"/></g><g transform="translate(2,-14) scale(1,1)"><g><path fill="none" stroke="none"/><text fill="#000000" stroke="none" font-family="Arial" font-size="13px" font-style="normal" font-weight="bold" text-decoration="none" x="215.010498046875" y="267.5">footerMain</text></g></g><g transform="translate(2,-14) scale(1,1)"><rect fill="#C0C0C0" stroke="none" x="207" y="799" width="58.14990234375" height="44" opacity="0.2"/></g><g transform="translate(2,-14) scale(1,1)"><rect fill="#27b227" stroke="none" x="200" y="792" width="58.14990234375" height="44"/></g><g transform="translate(2,-14) scale(1,1)"><path fill="none" stroke="#000000" d="M 200 792 L 258.14990234375 792 L 258.14990234375 836 L 200 836 L 200 792 Z Z" stroke-miterlimit="10"/></g><g transform="translate(2,-14) scale(1,1)"><path fill="none" stroke="#000000" d="M 200 817 L 258.14990234375 817" stroke-miterlimit="10"/></g><g transform="translate(2,-14) scale(1,1)"><path fill="none" stroke="#000000" d="M 200 827 L 258.14990234375 827" stroke-miterlimit="10"/></g><g transform="translate(2,-14) scale(1,1)"><g><path fill="none" stroke="none"/><text fill="#000000" stroke="none" font-family="Arial" font-size="13px" font-style="normal" font-weight="bold" text-decoration="none" x="215.351318359375" y="811.5">error</text></g></g><g transform="translate(2,-14) scale(1,1)"><rect fill="#C0C0C0" stroke="none" x="55" y="31" width="62.4599609375" height="44" opacity="0.2"/></g><g transform="translate(2,-14) scale(1,1)"><rect fill="#ff0000" stroke="none" x="48" y="24" width="62.4599609375" height="44"/></g><g transform="translate(2,-14) scale(1,1)"><path fill="none" stroke="#000000" d="M 48 24 L 110.4599609375 24 L 110.4599609375 68 L 48 68 L 48 24 Z Z" stroke-miterlimit="10"/></g><g transform="translate(2,-14) scale(1,1)"><path fill="none" stroke="#000000" d="M 48 49 L 110.4599609375 49" stroke-miterlimit="10"/></g><g transform="translate(2,-14) scale(1,1)"><path fill="none" stroke="#000000" d="M 48 59 L 110.4599609375 59" stroke-miterlimit="10"/></g><g transform="translate(2,-14) scale(1,1)"><g><path fill="none" stroke="none"/><text fill="#000000" stroke="none" font-family="Arial" font-size="13px" font-style="normal" font-weight="bold" text-decoration="none" x="54.299560546875" y="43.5">template</text></g></g><g transform="translate(2,-14) scale(1,1)"><rect fill="#C0C0C0" stroke="none" x="143" y="31" width="79.052734375" height="44" opacity="0.2"/></g><g transform="translate(2,-14) scale(1,1)"><rect fill="#27b227" stroke="none" x="136" y="24" width="79.052734375" height="44"/></g><g transform="translate(2,-14) scale(1,1)"><path fill="none" stroke="#000000" d="M 136 24 L 215.052734375 24 L 215.052734375 68 L 136 68 L 136 24 Z Z" stroke-miterlimit="10"/></g><g transform="translate(2,-14) scale(1,1)"><path fill="none" stroke="#000000" d="M 136 49 L 215.052734375 49" stroke-miterlimit="10"/></g><g transform="translate(2,-14) scale(1,1)"><path fill="none" stroke="#000000" d="M 136 59 L 215.052734375 59" stroke-miterlimit="10"/></g><g transform="translate(2,-14) scale(1,1)"><g><path fill="none" stroke="none"/><text fill="#000000" stroke="none" font-family="Arial" font-size="13px" font-style="normal" font-weight="bold" text-decoration="none" x="143.365966796875" y="43.5">component</text></g></g><g transform="translate(2,-14) scale(1,1)"><rect fill="#C0C0C0" stroke="none" x="239" y="31" width="53.82080078125" height="44" opacity="0.2"/></g><g transform="translate(2,-14) scale(1,1)"><rect fill="#5656ff" stroke="none" x="232" y="24" width="53.82080078125" height="44"/></g><g transform="translate(2,-14) scale(1,1)"><path fill="none" stroke="#000000" d="M 232 24 L 285.82080078125 24 L 285.82080078125 68 L 232 68 L 232 24 Z Z" stroke-miterlimit="10"/></g><g transform="translate(2,-14) scale(1,1)"><path fill="none" stroke="#000000" d="M 232 49 L 285.82080078125 49" stroke-miterlimit="10"/></g><g transform="translate(2,-14) scale(1,1)"><path fill="none" stroke="#000000" d="M 232 59 L 285.82080078125 59" stroke-miterlimit="10"/></g><g transform="translate(2,-14) scale(1,1)"><g><path fill="none" stroke="none"/><text fill="#000000" stroke="none" font-family="Arial" font-size="13px" font-style="normal" font-weight="bold" text-decoration="none" x="238.32177734375" y="43.5">service</text></g></g><g transform="translate(2,-14) scale(1,1)"><rect fill="#C0C0C0" stroke="none" x="1295" y="447" width="72.552734375" height="44" opacity="0.2"/></g><g transform="translate(2,-14) scale(1,1)"><rect fill="#ff0000" stroke="none" x="1288" y="440" width="72.552734375" height="44"/></g><g transform="translate(2,-14) scale(1,1)"><path fill="none" stroke="#000000" d="M 1288 440 L 1360.552734375 440 L 1360.552734375 484 L 1288 484 L 1288 440 Z Z" stroke-miterlimit="10"/></g><g transform="translate(2,-14) scale(1,1)"><path fill="none" stroke="#000000" d="M 1288 465 L 1360.552734375 465" stroke-miterlimit="10"/></g><g transform="translate(2,-14) scale(1,1)"><path fill="none" stroke="#000000" d="M 1288 475 L 1360.552734375 475" stroke-miterlimit="10"/></g><g transform="translate(2,-14) scale(1,1)"><g><path fill="none" stroke="none"/><text fill="#000000" stroke="none" font-family="Arial" font-size="13px" font-style="normal" font-weight="bold" text-decoration="none" x="1295.016845703125" y="459.5">hotelForm</text></g></g><g transform="translate(2,-14) scale(1,1)"><rect fill="#C0C0C0" stroke="none" x="1439" y="447" width="72.552734375" height="44" opacity="0.2"/></g><g transform="translate(2,-14) scale(1,1)"><rect fill="#27b227" stroke="none" x="1432" y="440" width="72.552734375" height="44"/></g><g transform="translate(2,-14) scale(1,1)"><path fill="none" stroke="#000000" d="M 1432 440 L 1504.552734375 440 L 1504.552734375 484 L 1432 484 L 1432 440 Z Z" stroke-miterlimit="10"/></g><g transform="translate(2,-14) scale(1,1)"><path fill="none" stroke="#000000" d="M 1432 465 L 1504.552734375 465" stroke-miterlimit="10"/></g><g transform="translate(2,-14) scale(1,1)"><path fill="none" stroke="#000000" d="M 1432 475 L 1504.552734375 475" stroke-miterlimit="10"/></g><g transform="translate(2,-14) scale(1,1)"><g><path fill="none" stroke="none"/><text fill="#000000" stroke="none" font-family="Arial" font-size="13px" font-style="normal" font-weight="bold" text-decoration="none" x="1439.016845703125" y="459.5">hotelForm</text></g></g><g transform="translate(2,-14) scale(1,1)"><rect fill="#C0C0C0" stroke="none" x="1295" y="655" width="66.0654296875" height="44" opacity="0.2"/></g><g transform="translate(2,-14) scale(1,1)"><rect fill="#ff0000" stroke="none" x="1288" y="648" width="66.0654296875" height="44"/></g><g transform="translate(2,-14) scale(1,1)"><path fill="none" stroke="#000000" d="M 1288 648 L 1354.0654296875 648 L 1354.0654296875 692 L 1288 692 L 1288 648 Z Z" stroke-miterlimit="10"/></g><g transform="translate(2,-14) scale(1,1)"><path fill="none" stroke="#000000" d="M 1288 673 L 1354.0654296875 673" stroke-miterlimit="10"/></g><g transform="translate(2,-14) scale(1,1)"><path fill="none" stroke="#000000" d="M 1288 683 L 1354.0654296875 683" stroke-miterlimit="10"/></g><g transform="translate(2,-14) scale(1,1)"><g><path fill="none" stroke="none"/><text fill="#000000" stroke="none" font-family="Arial" font-size="13px" font-style="normal" font-weight="bold" text-decoration="none" x="1295.74365234375" y="667.5">clientList</text></g></g><g transform="translate(2,-14) scale(1,1)"><rect fill="#C0C0C0" stroke="none" x="1047" y="551" width="64.61181640625" height="44" opacity="0.2"/></g><g transform="translate(2,-14) scale(1,1)"><rect fill="#27b227" stroke="none" x="1040" y="544" width="64.61181640625" height="44"/></g><g transform="translate(2,-14) scale(1,1)"><path fill="none" stroke="#000000" d="M 1040 544 L 1104.61181640625 544 L 1104.61181640625 588 L 1040 588 L 1040 544 Z Z" stroke-miterlimit="10"/></g><g transform="translate(2,-14) scale(1,1)"><path fill="none" stroke="#000000" d="M 1040 569 L 1104.61181640625 569" stroke-miterlimit="10"/></g><g transform="translate(2,-14) scale(1,1)"><path fill="none" stroke="#000000" d="M 1040 579 L 1104.61181640625 579" stroke-miterlimit="10"/></g><g transform="translate(2,-14) scale(1,1)"><g><path fill="none" stroke="none"/><text fill="#000000" stroke="none" font-family="Arial" font-size="13px" font-style="normal" font-weight="bold" text-decoration="none" x="1046.286865234375" y="563.5">addHotel</text></g></g><g transform="translate(2,-14) scale(1,1)"><rect fill="#C0C0C0" stroke="none" x="1295" y="551" width="64.61181640625" height="44" opacity="0.2"/></g><g transform="translate(2,-14) scale(1,1)"><rect fill="#ff0000" stroke="none" x="1288" y="544" width="64.61181640625" height="44"/></g><g transform="translate(2,-14) scale(1,1)"><path fill="none" stroke="#000000" d="M 1288 544 L 1352.61181640625 544 L 1352.61181640625 588 L 1288 588 L 1288 544 Z Z" stroke-miterlimit="10"/></g><g transform="translate(2,-14) scale(1,1)"><path fill="none" stroke="#000000" d="M 1288 569 L 1352.61181640625 569" stroke-miterlimit="10"/></g><g transform="translate(2,-14) scale(1,1)"><path fill="none" stroke="#000000" d="M 1288 579 L 1352.61181640625 579" stroke-miterlimit="10"/></g><g transform="translate(2,-14) scale(1,1)"><g><path fill="none" stroke="none"/><text fill="#000000" stroke="none" font-family="Arial" font-size="13px" font-style="normal" font-weight="bold" text-decoration="none" x="1294.286865234375" y="563.5">addHotel</text></g></g><g transform="translate(2,-14) scale(1,1)"><rect fill="#C0C0C0" stroke="none" x="215" y="199" width="80" height="44" opacity="0.2"/></g><g transform="translate(2,-14) scale(1,1)"><rect fill="#27b227" stroke="none" x="208" y="192" width="80" height="44"/></g><g transform="translate(2,-14) scale(1,1)"><path fill="none" stroke="#000000" d="M 208 192 L 288 192 L 288 236 L 208 236 L 208 192 Z Z" stroke-miterlimit="10"/></g><g transform="translate(2,-14) scale(1,1)"><path fill="none" stroke="#000000" d="M 208 217 L 288 217" stroke-miterlimit="10"/></g><g transform="translate(2,-14) scale(1,1)"><path fill="none" stroke="#000000" d="M 208 227 L 288 227" stroke-miterlimit="10"/></g><g transform="translate(2,-14) scale(1,1)"><g><path fill="none" stroke="none"/><text fill="#000000" stroke="none" font-family="Arial" font-size="13px" font-style="normal" font-weight="bold" text-decoration="none" x="231.378662109375" y="211.5">footer</text></g></g><g transform="translate(2,-14) scale(1,1)"><rect fill="#C0C0C0" stroke="none" x="666" y="839" width="58.14990234375" height="44" opacity="0.2"/></g><g transform="translate(2,-14) scale(1,1)"><rect fill="#27b227" stroke="none" x="659" y="832" width="58.14990234375" height="44"/></g><g transform="translate(2,-14) scale(1,1)"><path fill="none" stroke="#000000" d="M 659 832 L 717.14990234375 832 L 717.14990234375 876 L 659 876 L 659 832 Z Z" stroke-miterlimit="10"/></g><g transform="translate(2,-14) scale(1,1)"><path fill="none" stroke="#000000" d="M 659 857 L 717.14990234375 857" stroke-miterlimit="10"/></g><g transform="translate(2,-14) scale(1,1)"><path fill="none" stroke="#000000" d="M 659 867 L 717.14990234375 867" stroke-miterlimit="10"/></g><g transform="translate(2,-14) scale(1,1)"><g><path fill="none" stroke="none"/><text fill="#000000" stroke="none" font-family="Arial" font-size="13px" font-style="normal" font-weight="bold" text-decoration="none" x="666.75634765625" y="851.5">sidebar</text></g></g><g transform="translate(2,-14) scale(1,1)"><rect fill="#C0C0C0" stroke="none" x="666" y="903" width="58.14990234375" height="44" opacity="0.2"/></g><g transform="translate(2,-14) scale(1,1)"><rect fill="#ff0000" stroke="none" x="659" y="896" width="58.14990234375" height="44"/></g><g transform="translate(2,-14) scale(1,1)"><path fill="none" stroke="#000000" d="M 659 896 L 717.14990234375 896 L 717.14990234375 940 L 659 940 L 659 896 Z Z" stroke-miterlimit="10"/></g><g transform="translate(2,-14) scale(1,1)"><path fill="none" stroke="#000000" d="M 659 921 L 717.14990234375 921" stroke-miterlimit="10"/></g><g transform="translate(2,-14) scale(1,1)"><path fill="none" stroke="#000000" d="M 659 931 L 717.14990234375 931" stroke-miterlimit="10"/></g><g transform="translate(2,-14) scale(1,1)"><g><path fill="none" stroke="none"/><text fill="#000000" stroke="none" font-family="Arial" font-size="13px" font-style="normal" font-weight="bold" text-decoration="none" x="666.75634765625" y="915.5">sidebar</text></g></g><g transform="translate(2,-14) scale(1,1)"><rect fill="#C0C0C0" stroke="none" x="215" y="311" width="58.14990234375" height="44" opacity="0.2"/></g><g transform="translate(2,-14) scale(1,1)"><rect fill="#27b227" stroke="none" x="208" y="304" width="58.14990234375" height="44"/></g><g transform="translate(2,-14) scale(1,1)"><path fill="none" stroke="#000000" d="M 208 304 L 266.14990234375 304 L 266.14990234375 348 L 208 348 L 208 304 Z Z" stroke-miterlimit="10"/></g><g transform="translate(2,-14) scale(1,1)"><path fill="none" stroke="#000000" d="M 208 329 L 266.14990234375 329" stroke-miterlimit="10"/></g><g transform="translate(2,-14) scale(1,1)"><path fill="none" stroke="#000000" d="M 208 339 L 266.14990234375 339" stroke-miterlimit="10"/></g><g transform="translate(2,-14) scale(1,1)"><g><path fill="none" stroke="none"/><text fill="#000000" stroke="none" font-family="Arial" font-size="13px" font-style="normal" font-weight="bold" text-decoration="none" x="216.83544921875" y="323.5">header</text></g></g><g transform="translate(2,-14) scale(1,1)"><rect fill="#C0C0C0" stroke="none" x="1047" y="655" width="66.0654296875" height="44" opacity="0.2"/></g><g transform="translate(2,-14) scale(1,1)"><rect fill="#27b227" stroke="none" x="1040" y="648" width="66.0654296875" height="44"/></g><g transform="translate(2,-14) scale(1,1)"><path fill="none" stroke="#000000" d="M 1040 648 L 1106.0654296875 648 L 1106.0654296875 692 L 1040 692 L 1040 648 Z Z" stroke-miterlimit="10"/></g><g transform="translate(2,-14) scale(1,1)"><path fill="none" stroke="#000000" d="M 1040 673 L 1106.0654296875 673" stroke-miterlimit="10"/></g><g transform="translate(2,-14) scale(1,1)"><path fill="none" stroke="#000000" d="M 1040 683 L 1106.0654296875 683" stroke-miterlimit="10"/></g><g transform="translate(2,-14) scale(1,1)"><g><path fill="none" stroke="none"/><text fill="#000000" stroke="none" font-family="Arial" font-size="13px" font-style="normal" font-weight="bold" text-decoration="none" x="1047.74365234375" y="667.5">clientList</text></g></g><g transform="translate(2,-14) scale(1,1)"><rect fill="#C0C0C0" stroke="none" x="1295" y="375" width="117.37353515625" height="44" opacity="0.2"/></g><g transform="translate(2,-14) scale(1,1)"><rect fill="#ff0000" stroke="none" x="1288" y="368" width="117.37353515625" height="44"/></g><g transform="translate(2,-14) scale(1,1)"><path fill="none" stroke="#000000" d="M 1288 368 L 1405.37353515625 368 L 1405.37353515625 412 L 1288 412 L 1288 368 Z Z" stroke-miterlimit="10"/></g><g transform="translate(2,-14) scale(1,1)"><path fill="none" stroke="#000000" d="M 1288 393 L 1405.37353515625 393" stroke-miterlimit="10"/></g><g transform="translate(2,-14) scale(1,1)"><path fill="none" stroke="#000000" d="M 1288 403 L 1405.37353515625 403" stroke-miterlimit="10"/></g><g transform="translate(2,-14) scale(1,1)"><g><path fill="none" stroke="none"/><text fill="#000000" stroke="none" font-family="Arial" font-size="13px" font-style="normal" font-weight="bold" text-decoration="none" x="1296.8291015625" y="387.5">clientReservation</text></g></g><g transform="translate(2,-14) scale(1,1)"><rect fill="#C0C0C0" stroke="none" x="1047" y="455" width="64.61181640625" height="44" opacity="0.2"/></g><g transform="translate(2,-14) scale(1,1)"><rect fill="#27b227" stroke="none" x="1040" y="448" width="64.61181640625" height="44"/></g><g transform="translate(2,-14) scale(1,1)"><path fill="none" stroke="#000000" d="M 1040 448 L 1104.61181640625 448 L 1104.61181640625 492 L 1040 492 L 1040 448 Z Z" stroke-miterlimit="10"/></g><g transform="translate(2,-14) scale(1,1)"><path fill="none" stroke="#000000" d="M 1040 473 L 1104.61181640625 473" stroke-miterlimit="10"/></g><g transform="translate(2,-14) scale(1,1)"><path fill="none" stroke="#000000" d="M 1040 483 L 1104.61181640625 483" stroke-miterlimit="10"/></g><g transform="translate(2,-14) scale(1,1)"><g><path fill="none" stroke="none"/><text fill="#000000" stroke="none" font-family="Arial" font-size="13px" font-style="normal" font-weight="bold" text-decoration="none" x="1046.65185546875" y="467.5">editHotel</text></g></g><g transform="translate(2,-14) scale(1,1)"><rect fill="#C0C0C0" stroke="none" x="1047" y="735" width="72.5654296875" height="44" opacity="0.2"/></g><g transform="translate(2,-14) scale(1,1)"><rect fill="#27b227" stroke="none" x="1040" y="728" width="72.5654296875" height="44"/></g><g transform="translate(2,-14) scale(1,1)"><path fill="none" stroke="#000000" d="M 1040 728 L 1112.5654296875 728 L 1112.5654296875 772 L 1040 772 L 1040 728 Z Z" stroke-miterlimit="10"/></g><g transform="translate(2,-14) scale(1,1)"><path fill="none" stroke="#000000" d="M 1040 753 L 1112.5654296875 753" stroke-miterlimit="10"/></g><g transform="translate(2,-14) scale(1,1)"><path fill="none" stroke="#000000" d="M 1040 763 L 1112.5654296875 763" stroke-miterlimit="10"/></g><g transform="translate(2,-14) scale(1,1)"><g><path fill="none" stroke="none"/><text fill="#000000" stroke="none" font-family="Arial" font-size="13px" font-style="normal" font-weight="bold" text-decoration="none" x="1047.378662109375" y="747.5">editProfile</text></g></g><g transform="translate(2,-14) scale(1,1)"><rect fill="#C0C0C0" stroke="none" x="1047" y="375" width="117.37353515625" height="44" opacity="0.2"/></g><g transform="translate(2,-14) scale(1,1)"><rect fill="#27b227" stroke="none" x="1040" y="368" width="117.37353515625" height="44"/></g><g transform="translate(2,-14) scale(1,1)"><path fill="none" stroke="#000000" d="M 1040 368 L 1157.37353515625 368 L 1157.37353515625 412 L 1040 412 L 1040 368 Z Z" stroke-miterlimit="10"/></g><g transform="translate(2,-14) scale(1,1)"><path fill="none" stroke="#000000" d="M 1040 393 L 1157.37353515625 393" stroke-miterlimit="10"/></g><g transform="translate(2,-14) scale(1,1)"><path fill="none" stroke="#000000" d="M 1040 403 L 1157.37353515625 403" stroke-miterlimit="10"/></g><g transform="translate(2,-14) scale(1,1)"><g><path fill="none" stroke="none"/><text fill="#000000" stroke="none" font-family="Arial" font-size="13px" font-style="normal" font-weight="bold" text-decoration="none" x="1048.8291015625" y="387.5">clientReservation</text></g></g><g transform="translate(2,-14) scale(1,1)"><rect fill="#C0C0C0" stroke="none" x="115.45361328125" y="679" width="50.919921875" height="44" opacity="0.2"/></g><g transform="translate(2,-14) scale(1,1)"><rect fill="#ff0000" stroke="none" x="108.45361328125" y="672" width="50.919921875" height="44"/></g><g transform="translate(2,-14) scale(1,1)"><path fill="none" stroke="#000000" d="M 108.45361328125 672 L 159.37353515625 672 L 159.37353515625 716 L 108.45361328125 716 L 108.45361328125 672 Z Z" stroke-miterlimit="10"/></g><g transform="translate(2,-14) scale(1,1)"><path fill="none" stroke="#000000" d="M 108.45361328125 697 L 159.37353515625 697" stroke-miterlimit="10"/></g><g transform="translate(2,-14) scale(1,1)"><path fill="none" stroke="#000000" d="M 108.45361328125 707 L 159.37353515625 707" stroke-miterlimit="10"/></g><g transform="translate(2,-14) scale(1,1)"><g><path fill="none" stroke="none"/><text fill="#000000" stroke="none" font-family="Arial" font-size="13px" font-style="normal" font-weight="bold" text-decoration="none" x="120.180419921875" y="691.5">login</text></g></g><g transform="translate(2,-14) scale(1,1)"><rect fill="#C0C0C0" stroke="none" x="1295" y="815" width="124.5908203125" height="44" opacity="0.2"/></g><g transform="translate(2,-14) scale(1,1)"><rect fill="#ff0000" stroke="none" x="1288" y="808" width="124.5908203125" height="44"/></g><g transform="translate(2,-14) scale(1,1)"><path fill="none" stroke="#000000" d="M 1288 808 L 1412.5908203125 808 L 1412.5908203125 852 L 1288 852 L 1288 808 Z Z" stroke-miterlimit="10"/></g><g transform="translate(2,-14) scale(1,1)"><path fill="none" stroke="#000000" d="M 1288 833 L 1412.5908203125 833" stroke-miterlimit="10"/></g><g transform="translate(2,-14) scale(1,1)"><path fill="none" stroke="#000000" d="M 1288 843 L 1412.5908203125 843" stroke-miterlimit="10"/></g><g transform="translate(2,-14) scale(1,1)"><g><path fill="none" stroke="none"/><text fill="#000000" stroke="none" font-family="Arial" font-size="13px" font-style="normal" font-weight="bold" text-decoration="none" x="1296.5751953125" y="827.5">managerValidation</text></g></g><g transform="translate(2,-14) scale(1,1)"><rect fill="#C0C0C0" stroke="none" x="1183" y="455" width="64.61181640625" height="44" opacity="0.2"/></g><g transform="translate(2,-14) scale(1,1)"><rect fill="#ff0000" stroke="none" x="1176" y="448" width="64.61181640625" height="44"/></g><g transform="translate(2,-14) scale(1,1)"><path fill="none" stroke="#000000" d="M 1176 448 L 1240.61181640625 448 L 1240.61181640625 492 L 1176 492 L 1176 448 Z Z" stroke-miterlimit="10"/></g><g transform="translate(2,-14) scale(1,1)"><path fill="none" stroke="#000000" d="M 1176 473 L 1240.61181640625 473" stroke-miterlimit="10"/></g><g transform="translate(2,-14) scale(1,1)"><path fill="none" stroke="#000000" d="M 1176 483 L 1240.61181640625 483" stroke-miterlimit="10"/></g><g transform="translate(2,-14) scale(1,1)"><g><path fill="none" stroke="none"/><text fill="#000000" stroke="none" font-family="Arial" font-size="13px" font-style="normal" font-weight="bold" text-decoration="none" x="1182.65185546875" y="467.5">editHotel</text></g></g><g transform="translate(2,-14) scale(1,1)"><rect fill="#C0C0C0" stroke="none" x="212" y="679" width="57.4326171875" height="44" opacity="0.2"/></g><g transform="translate(2,-14) scale(1,1)"><rect fill="#27b227" stroke="none" x="205" y="672" width="57.4326171875" height="44"/></g><g transform="translate(2,-14) scale(1,1)"><path fill="none" stroke="#000000" d="M 205 672 L 262.4326171875 672 L 262.4326171875 716 L 205 716 L 205 672 Z Z" stroke-miterlimit="10"/></g><g transform="translate(2,-14) scale(1,1)"><path fill="none" stroke="#000000" d="M 205 697 L 262.4326171875 697" stroke-miterlimit="10"/></g><g transform="translate(2,-14) scale(1,1)"><path fill="none" stroke="#000000" d="M 205 707 L 262.4326171875 707" stroke-miterlimit="10"/></g><g transform="translate(2,-14) scale(1,1)"><g><path fill="none" stroke="none"/><text fill="#000000" stroke="none" font-family="Arial" font-size="13px" font-style="normal" font-weight="bold" text-decoration="none" x="219.983154296875" y="691.5">login</text></g></g><g transform="translate(2,-14) scale(1,1)"><rect fill="#C0C0C0" stroke="none" x="1047" y="815" width="124.5908203125" height="44" opacity="0.2"/></g><g transform="translate(2,-14) scale(1,1)"><rect fill="#27b227" stroke="none" x="1040" y="808" width="124.5908203125" height="44"/></g><g transform="translate(2,-14) scale(1,1)"><path fill="none" stroke="#000000" d="M 1040 808 L 1164.5908203125 808 L 1164.5908203125 852 L 1040 852 L 1040 808 Z Z" stroke-miterlimit="10"/></g><g transform="translate(2,-14) scale(1,1)"><path fill="none" stroke="#000000" d="M 1040 833 L 1164.5908203125 833" stroke-miterlimit="10"/></g><g transform="translate(2,-14) scale(1,1)"><path fill="none" stroke="#000000" d="M 1040 843 L 1164.5908203125 843" stroke-miterlimit="10"/></g><g transform="translate(2,-14) scale(1,1)"><g><path fill="none" stroke="none"/><text fill="#000000" stroke="none" font-family="Arial" font-size="13px" font-style="normal" font-weight="bold" text-decoration="none" x="1048.5751953125" y="827.5">managerValidation</text></g></g><g transform="translate(2,-14) scale(1,1)"><rect fill="#C0C0C0" stroke="none" x="1295" y="735" width="72.5654296875" height="44" opacity="0.2"/></g><g transform="translate(2,-14) scale(1,1)"><rect fill="#ff0000" stroke="none" x="1288" y="728" width="72.5654296875" height="44"/></g><g transform="translate(2,-14) scale(1,1)"><path fill="none" stroke="#000000" d="M 1288 728 L 1360.5654296875 728 L 1360.5654296875 772 L 1288 772 L 1288 728 Z Z" stroke-miterlimit="10"/></g><g transform="translate(2,-14) scale(1,1)"><path fill="none" stroke="#000000" d="M 1288 753 L 1360.5654296875 753" stroke-miterlimit="10"/></g><g transform="translate(2,-14) scale(1,1)"><path fill="none" stroke="#000000" d="M 1288 763 L 1360.5654296875 763" stroke-miterlimit="10"/></g><g transform="translate(2,-14) scale(1,1)"><g><path fill="none" stroke="none"/><text fill="#000000" stroke="none" font-family="Arial" font-size="13px" font-style="normal" font-weight="bold" text-decoration="none" x="1295.378662109375" y="747.5">editProfile</text></g></g><g transform="translate(2,-14) scale(1,1)"><rect fill="#C0C0C0" stroke="none" x="108.2236328125" y="455" width="58.14990234375" height="44" opacity="0.2"/></g><g transform="translate(2,-14) scale(1,1)"><rect fill="#ff0000" stroke="none" x="101.2236328125" y="448" width="58.14990234375" height="44"/></g><g transform="translate(2,-14) scale(1,1)"><path fill="none" stroke="#000000" d="M 101.2236328125 448 L 159.37353515625 448 L 159.37353515625 492 L 101.2236328125 492 L 101.2236328125 448 Z Z" stroke-miterlimit="10"/></g><g transform="translate(2,-14) scale(1,1)"><path fill="none" stroke="#000000" d="M 101.2236328125 473 L 159.37353515625 473" stroke-miterlimit="10"/></g><g transform="translate(2,-14) scale(1,1)"><path fill="none" stroke="#000000" d="M 101.2236328125 483 L 159.37353515625 483" stroke-miterlimit="10"/></g><g transform="translate(2,-14) scale(1,1)"><g><path fill="none" stroke="none"/><text fill="#000000" stroke="none" font-family="Arial" font-size="13px" font-style="normal" font-weight="bold" text-decoration="none" x="112.594970703125" y="467.5">profile</text></g></g><g transform="translate(2,-14) scale(1,1)"><rect fill="#C0C0C0" stroke="none" x="212" y="447" width="58.14990234375" height="44" opacity="0.2"/></g><g transform="translate(2,-14) scale(1,1)"><rect fill="#27b227" stroke="none" x="205" y="440" width="58.14990234375" height="44"/></g><g transform="translate(2,-14) scale(1,1)"><path fill="none" stroke="#000000" d="M 205 440 L 263.14990234375 440 L 263.14990234375 484 L 205 484 L 205 440 Z Z" stroke-miterlimit="10"/></g><g transform="translate(2,-14) scale(1,1)"><path fill="none" stroke="#000000" d="M 205 465 L 263.14990234375 465" stroke-miterlimit="10"/></g><g transform="translate(2,-14) scale(1,1)"><path fill="none" stroke="#000000" d="M 205 475 L 263.14990234375 475" stroke-miterlimit="10"/></g><g transform="translate(2,-14) scale(1,1)"><g><path fill="none" stroke="none"/><text fill="#000000" stroke="none" font-family="Arial" font-size="13px" font-style="normal" font-weight="bold" text-decoration="none" x="216.371337890625" y="459.5">profile</text></g></g><g transform="translate(2,-14) scale(1,1)"><rect fill="#C0C0C0" stroke="none" x="108.2236328125" y="511" width="58.14990234375" height="44" opacity="0.2"/></g><g transform="translate(2,-14) scale(1,1)"><rect fill="#ff0000" stroke="none" x="101.2236328125" y="504" width="58.14990234375" height="44"/></g><g transform="translate(2,-14) scale(1,1)"><path fill="none" stroke="#000000" d="M 101.2236328125 504 L 159.37353515625 504 L 159.37353515625 548 L 101.2236328125 548 L 101.2236328125 504 Z Z" stroke-miterlimit="10"/></g><g transform="translate(2,-14) scale(1,1)"><path fill="none" stroke="#000000" d="M 101.2236328125 529 L 159.37353515625 529" stroke-miterlimit="10"/></g><g transform="translate(2,-14) scale(1,1)"><path fill="none" stroke="#000000" d="M 101.2236328125 539 L 159.37353515625 539" stroke-miterlimit="10"/></g><g transform="translate(2,-14) scale(1,1)"><g><path fill="none" stroke="none"/><text fill="#000000" stroke="none" font-family="Arial" font-size="13px" font-style="normal" font-weight="bold" text-decoration="none" x="108.62451171875" y="523.5">register</text></g></g><g transform="translate(2,-14) scale(1,1)"><rect fill="#C0C0C0" stroke="none" x="212" y="503" width="58.14990234375" height="44" opacity="0.2"/></g><g transform="translate(2,-14) scale(1,1)"><rect fill="#27b227" stroke="none" x="205" y="496" width="58.14990234375" height="44"/></g><g transform="translate(2,-14) scale(1,1)"><path fill="none" stroke="#000000" d="M 205 496 L 263.14990234375 496 L 263.14990234375 540 L 205 540 L 205 496 Z Z" stroke-miterlimit="10"/></g><g transform="translate(2,-14) scale(1,1)"><path fill="none" stroke="#000000" d="M 205 521 L 263.14990234375 521" stroke-miterlimit="10"/></g><g transform="translate(2,-14) scale(1,1)"><path fill="none" stroke="#000000" d="M 205 531 L 263.14990234375 531" stroke-miterlimit="10"/></g><g transform="translate(2,-14) scale(1,1)"><g><path fill="none" stroke="none"/><text fill="#000000" stroke="none" font-family="Arial" font-size="13px" font-style="normal" font-weight="bold" text-decoration="none" x="212.40087890625" y="515.5">register</text></g></g><g transform="translate(2,-14) scale(1,1)"><rect fill="#C0C0C0" stroke="none" x="63.4599609375" y="375" width="102.91357421875" height="44" opacity="0.2"/></g><g transform="translate(2,-14) scale(1,1)"><rect fill="#ff0000" stroke="none" x="56.4599609375" y="368" width="102.91357421875" height="44"/></g><g transform="translate(2,-14) scale(1,1)"><path fill="none" stroke="#000000" d="M 56.4599609375 368 L 159.37353515625 368 L 159.37353515625 412 L 56.4599609375 412 L 56.4599609375 368 Z Z" stroke-miterlimit="10"/></g><g transform="translate(2,-14) scale(1,1)"><path fill="none" stroke="#000000" d="M 56.4599609375 393 L 159.37353515625 393" stroke-miterlimit="10"/></g><g transform="translate(2,-14) scale(1,1)"><path fill="none" stroke="#000000" d="M 56.4599609375 403 L 159.37353515625 403" stroke-miterlimit="10"/></g><g transform="translate(2,-14) scale(1,1)"><g><path fill="none" stroke="none"/><text fill="#000000" stroke="none" font-family="Arial" font-size="13px" font-style="normal" font-weight="bold" text-decoration="none" x="64.9208984375" y="387.5">reservationInfo</text></g></g><g transform="translate(2,-14) scale(1,1)"><rect fill="#C0C0C0" stroke="none" x="36" y="615" width="130.37353515625" height="44" opacity="0.2"/></g><g transform="translate(2,-14) scale(1,1)"><rect fill="#ff0000" stroke="none" x="29" y="608" width="130.37353515625" height="44"/></g><g transform="translate(2,-14) scale(1,1)"><path fill="none" stroke="#000000" d="M 29 608 L 159.37353515625 608 L 159.37353515625 652 L 29 652 L 29 608 Z Z" stroke-miterlimit="10"/></g><g transform="translate(2,-14) scale(1,1)"><path fill="none" stroke="#000000" d="M 29 633 L 159.37353515625 633" stroke-miterlimit="10"/></g><g transform="translate(2,-14) scale(1,1)"><path fill="none" stroke="#000000" d="M 29 643 L 159.37353515625 643" stroke-miterlimit="10"/></g><g transform="translate(2,-14) scale(1,1)"><g><path fill="none" stroke="none"/><text fill="#000000" stroke="none" font-family="Arial" font-size="13px" font-style="normal" font-weight="bold" text-decoration="none" x="37.10546875" y="627.5">viewHotelsManager</text></g></g><g transform="translate(2,-14) scale(1,1)"><rect fill="#C0C0C0" stroke="none" x="212" y="375" width="102.91357421875" height="44" opacity="0.2"/></g><g transform="translate(2,-14) scale(1,1)"><rect fill="#27b227" stroke="none" x="205" y="368" width="102.91357421875" height="44"/></g><g transform="translate(2,-14) scale(1,1)"><path fill="none" stroke="#000000" d="M 205 368 L 307.91357421875 368 L 307.91357421875 412 L 205 412 L 205 368 Z Z" stroke-miterlimit="10"/></g><g transform="translate(2,-14) scale(1,1)"><path fill="none" stroke="#000000" d="M 205 393 L 307.91357421875 393" stroke-miterlimit="10"/></g><g transform="translate(2,-14) scale(1,1)"><path fill="none" stroke="#000000" d="M 205 403 L 307.91357421875 403" stroke-miterlimit="10"/></g><g transform="translate(2,-14) scale(1,1)"><g><path fill="none" stroke="none"/><text fill="#000000" stroke="none" font-family="Arial" font-size="13px" font-style="normal" font-weight="bold" text-decoration="none" x="213.4609375" y="387.5">reservationInfo</text></g></g><g transform="translate(2,-14) scale(1,1)"><rect fill="#C0C0C0" stroke="none" x="212" y="607" width="130.37353515625" height="44" opacity="0.2"/></g><g transform="translate(2,-14) scale(1,1)"><rect fill="#27b227" stroke="none" x="205" y="600" width="130.37353515625" height="44"/></g><g transform="translate(2,-14) scale(1,1)"><path fill="none" stroke="#000000" d="M 205 600 L 335.37353515625 600 L 335.37353515625 644 L 205 644 L 205 600 Z Z" stroke-miterlimit="10"/></g><g transform="translate(2,-14) scale(1,1)"><path fill="none" stroke="#000000" d="M 205 625 L 335.37353515625 625" stroke-miterlimit="10"/></g><g transform="translate(2,-14) scale(1,1)"><path fill="none" stroke="#000000" d="M 205 635 L 335.37353515625 635" stroke-miterlimit="10"/></g><g transform="translate(2,-14) scale(1,1)"><g><path fill="none" stroke="none"/><text fill="#000000" stroke="none" font-family="Arial" font-size="13px" font-style="normal" font-weight="bold" text-decoration="none" x="213.10546875" y="619.5">viewHotelsManager</text></g></g><g transform="translate(2,-14) scale(1,1)"><path fill="none" stroke="#000000" d="M 688 876 L 688 896" stroke-miterlimit="10"/></g><g transform="translate(2,-14) scale(1,1)"><path fill="none" stroke="#000000" d="M 683.790482243984 885.8373251423759 L 688 896 L 692.209517756016 885.8373251423759" stroke-miterlimit="10"/></g><g transform="translate(2,-14) scale(1,1)"><path fill="none" stroke="#000000" d="M 1165 830 L 1288 830" stroke-miterlimit="10"/></g><g transform="translate(2,-14) scale(1,1)"><path fill="none" stroke="#000000" d="M 1277.837325142376 834.209517756016 L 1288 830 L 1277.837325142376 825.790482243984" stroke-miterlimit="10"/></g><g transform="translate(2,-14) scale(1,1)"><path fill="none" stroke="#000000" d="M 208 328 L 159 328" stroke-miterlimit="10"/></g><g transform="translate(2,-14) scale(1,1)"><path fill="none" stroke="#000000" d="M 169.16267485762415 323.790482243984 L 159 328 L 169.16267485762415 332.209517756016" stroke-miterlimit="10"/></g><g transform="translate(2,-14) scale(1,1)"><path fill="none" stroke="#000000" d="M 205 462 L 159 462" stroke-miterlimit="10"/></g><g transform="translate(2,-14) scale(1,1)"><path fill="none" stroke="#000000" d="M 169.16267485762415 457.790482243984 L 159 462 L 169.16267485762415 466.209517756016" stroke-miterlimit="10"/></g><g transform="translate(2,-14) scale(1,1)"><path fill="none" stroke="#000000" d="M 208 269 L 159 269" stroke-miterlimit="10"/></g><g transform="translate(2,-14) scale(1,1)"><path fill="none" stroke="#000000" d="M 169.16267485762415 264.790482243984 L 159 269 L 169.16267485762415 273.209517756016" stroke-miterlimit="10"/></g><g transform="translate(2,-14) scale(1,1)"><path fill="none" stroke="#000000" d="M 205 530 L 159 530" stroke-miterlimit="10"/></g><g transform="translate(2,-14) scale(1,1)"><path fill="none" stroke="#000000" d="M 169.16267485762415 525.790482243984 L 159 530 L 169.16267485762415 534.209517756016" stroke-miterlimit="10"/></g><g transform="translate(2,-14) scale(1,1)"><path fill="none" stroke="#000000" d="M 205 406 L 159 406" stroke-miterlimit="10"/></g><g transform="translate(2,-14) scale(1,1)"><path fill="none" stroke="#000000" d="M 169.16267485762415 401.790482243984 L 159 406 L 169.16267485762415 410.209517756016" stroke-miterlimit="10"/></g><g transform="translate(2,-14) scale(1,1)"><path fill="none" stroke="#000000" d="M 208 213 L 161 213" stroke-miterlimit="10"/></g><g transform="translate(2,-14) scale(1,1)"><path fill="none" stroke="#000000" d="M 171.16267485762415 208.790482243984 L 161 213 L 171.16267485762415 217.209517756016" stroke-miterlimit="10"/></g><g transform="translate(2,-14) scale(1,1)"><path fill="none" stroke="#000000" d="M 1105 566 L 1288 566" stroke-miterlimit="10"/></g><g transform="translate(2,-14) scale(1,1)"><path fill="none" stroke="#000000" d="M 1277.837325142376 570.209517756016 L 1288 566 L 1277.837325142376 561.790482243984" stroke-miterlimit="10"/></g><g transform="translate(2,-14) scale(1,1)"><path fill="none" stroke="#000000" d="M 205 627 L 159 627" stroke-miterlimit="10"/></g><g transform="translate(2,-14) scale(1,1)"><path fill="none" stroke="#000000" d="M 169.16267485762415 622.790482243984 L 159 627 L 169.16267485762415 631.209517756016" stroke-miterlimit="10"/></g><g transform="translate(2,-14) scale(1,1)"><path fill="none" stroke="#000000" d="M 200 820 L 162 820" stroke-miterlimit="10"/></g><g transform="translate(2,-14) scale(1,1)"><path fill="none" stroke="#000000" d="M 172.16267485762415 815.790482243984 L 162 820 L 172.16267485762415 824.209517756016" stroke-miterlimit="10"/></g><g transform="translate(2,-14) scale(1,1)"><path fill="none" stroke="#000000" d="M 1106 672 L 1288 672" stroke-miterlimit="10"/></g><g transform="translate(2,-14) scale(1,1)"><path fill="none" stroke="#000000" d="M 1277.837325142376 676.209517756016 L 1288 672 L 1277.837325142376 667.790482243984" stroke-miterlimit="10"/></g><g transform="translate(2,-14) scale(1,1)"><path fill="none" stroke="#000000" d="M 1157 398 L 1288 398" stroke-miterlimit="10"/></g><g transform="translate(2,-14) scale(1,1)"><path fill="none" stroke="#000000" d="M 1277.837325142376 402.209517756016 L 1288 398 L 1277.837325142376 393.790482243984" stroke-miterlimit="10"/></g><g transform="translate(2,-14) scale(1,1)"><path fill="none" stroke="#000000" d="M 1105 470 L 1176 470" stroke-miterlimit="10"/></g><g transform="translate(2,-14) scale(1,1)"><path fill="none" stroke="#000000" d="M 1165.837325142376 474.209517756016 L 1176 470 L 1165.837325142376 465.790482243984" stroke-miterlimit="10"/></g><g transform="translate(2,-14) scale(1,1)"><path fill="none" stroke="#000000" d="M 1113 750 L 1288 750" stroke-miterlimit="10"/></g><g transform="translate(2,-14) scale(1,1)"><path fill="none" stroke="#000000" d="M 1277.837325142376 754.209517756016 L 1288 750 L 1277.837325142376 745.790482243984" stroke-miterlimit="10"/></g><g transform="translate(2,-14) scale(1,1)"><path fill="none" stroke="#000000" d="M 1432 464 L 1361 464" stroke-miterlimit="10"/></g><g transform="translate(2,-14) scale(1,1)"><path fill="none" stroke="#000000" d="M 1371.162674857624 459.790482243984 L 1361 464 L 1371.162674857624 468.209517756016" stroke-miterlimit="10"/></g><g transform="translate(2,-14) scale(1,1)"><path fill="none" stroke="#000000" d="M 205 696 L 159 696" stroke-miterlimit="10"/></g><g transform="translate(2,-14) scale(1,1)"><path fill="none" stroke="#000000" d="M 169.16267485762415 691.790482243984 L 159 696 L 169.16267485762415 700.209517756016" stroke-miterlimit="10"/></g><g transform="translate(2,-14) scale(1,1)"><path fill="none" stroke="#008400" d="M 262 712 L 392 712 L 392 784 L 659 784" stroke-miterlimit="10"/></g><g transform="translate(2,-14) scale(1,1)"><path fill="none" stroke="#008400" d="M 648.8373251423759 788.209517756016 L 659 784 L 648.8373251423758 779.790482243984" stroke-miterlimit="10"/></g><g transform="translate(2,-14) scale(1,1)"><path fill="none" stroke="#000000" d="M 1353 566 L 1560 566 L 1560 928 L 717 928" stroke-miterlimit="10"/></g><g transform="translate(2,-14) scale(1,1)"><path fill="none" stroke="#000000" d="M 727.1626748576241 923.790482243984 L 717 928 L 727.1626748576241 932.209517756016" stroke-miterlimit="10"/></g><g transform="translate(2,-14) scale(1,1)"><path fill="none" stroke="#ff0000" d="M 1040 568 L 714 568" stroke-miterlimit="10"/></g><g transform="translate(2,-14) scale(1,1)"><path fill="none" stroke="#ff0000" d="M 724.1626748576241 563.790482243984 L 714 568 L 724.1626748576241 572.209517756016" stroke-miterlimit="10"/></g><g transform="translate(2,-14) scale(1,1)"><path fill="none" stroke="#008400" d="M 1040 584 L 864 584 L 864 784 L 717 784" stroke-miterlimit="10"/></g><g transform="translate(2,-14) scale(1,1)"><path fill="none" stroke="#008400" d="M 727.1626748576241 779.790482243984 L 717 784 L 727.1626748576241 788.209517756016" stroke-miterlimit="10"/></g><g transform="translate(2,-14) scale(1,1)"><path fill="none" stroke="#000000" d="M 1324 544 L 1324 484" stroke-miterlimit="10"/></g><g transform="translate(2,-14) scale(1,1)"><path fill="none" stroke="#000000" d="M 1328.2095177560159 494.16267485762415 L 1324 484 L 1319.7904822439841 494.16267485762415" stroke-miterlimit="10"/></g><g transform="translate(2,-14) scale(1,1)"><path fill="none" stroke="#000000" d="M 1354 674 L 1560 674 L 1560 928 L 717 928" stroke-miterlimit="10"/></g><g transform="translate(2,-14) scale(1,1)"><path fill="none" stroke="#000000" d="M 727.1626748576241 923.790482243984 L 717 928 L 727.1626748576241 932.209517756016" stroke-miterlimit="10"/></g><g transform="translate(2,-14) scale(1,1)"><path fill="none" stroke="#008400" d="M 1040 680 L 864 680 L 864 784 L 717 784" stroke-miterlimit="10"/></g><g transform="translate(2,-14) scale(1,1)"><path fill="none" stroke="#008400" d="M 727.1626748576241 779.790482243984 L 717 784 L 727.1626748576241 788.209517756016" stroke-miterlimit="10"/></g><g transform="translate(2,-14) scale(1,1)"><path fill="none" stroke="#ff0000" d="M 1040 654 L 816 654 L 816 568 L 714 568" stroke-miterlimit="10"/></g><g transform="translate(2,-14) scale(1,1)"><path fill="none" stroke="#ff0000" d="M 724.1626748576241 563.790482243984 L 714 568 L 724.1626748576241 572.209517756016" stroke-miterlimit="10"/></g><g transform="translate(2,-14) scale(1,1)"><path fill="none" stroke="#003399" d="M 1040 672 L 768 672 L 768 472 L 714 472" stroke-miterlimit="10"/></g><g transform="translate(2,-14) scale(1,1)"><path fill="none" stroke="#003399" d="M 724.1626748576241 467.790482243984 L 714 472 L 724.1626748576241 476.209517756016" stroke-miterlimit="10"/></g><g transform="translate(2,-14) scale(1,1)"><path fill="none" stroke="#000000" d="M 1405 392 L 1560 392 L 1560 928 L 717 928" stroke-miterlimit="10"/></g><g transform="translate(2,-14) scale(1,1)"><path fill="none" stroke="#000000" d="M 727.1626748576241 923.790482243984 L 717 928 L 727.1626748576241 932.209517756016" stroke-miterlimit="10"/></g><g transform="translate(2,-14) scale(1,1)"><path fill="none" stroke="#008400" d="M 1040 400 L 864 400 L 864 784 L 717 784" stroke-miterlimit="10"/></g><g transform="translate(2,-14) scale(1,1)"><path fill="none" stroke="#008400" d="M 727.1626748576241 779.790482243984 L 717 784 L 727.1626748576241 788.209517756016" stroke-miterlimit="10"/></g><g transform="translate(2,-14) scale(1,1)"><path fill="none" stroke="#ff0000" d="M 1040 384 L 816 384 L 816 568 L 714 568" stroke-miterlimit="10"/></g><g transform="translate(2,-14) scale(1,1)"><path fill="none" stroke="#ff0000" d="M 724.1626748576241 563.790482243984 L 714 568 L 724.1626748576241 572.209517756016" stroke-miterlimit="10"/></g><g transform="translate(2,-14) scale(1,1)"><path fill="none" stroke="#ad00ad" d="M 1040 376 L 730 376" stroke-miterlimit="10"/></g><g transform="translate(2,-14) scale(1,1)"><path fill="none" stroke="#ad00ad" d="M 740.1626748576241 371.790482243984 L 730 376 L 740.1626748576241 380.209517756016" stroke-miterlimit="10"/></g><g transform="translate(2,-14) scale(1,1)"><path fill="none" stroke="#000000" d="M 1216 492 L 1216 928 L 717 928" stroke-miterlimit="10"/></g><g transform="translate(2,-14) scale(1,1)"><path fill="none" stroke="#000000" d="M 727.1626748576241 923.790482243984 L 717 928 L 727.1626748576241 932.209517756016" stroke-miterlimit="10"/></g><g transform="translate(2,-14) scale(1,1)"><path fill="none" stroke="#000000" d="M 1241 464 L 1288 464" stroke-miterlimit="10"/></g><g transform="translate(2,-14) scale(1,1)"><path fill="none" stroke="#000000" d="M 1277.837325142376 468.209517756016 L 1288 464 L 1277.837325142376 459.790482243984" stroke-miterlimit="10"/></g><g transform="translate(2,-14) scale(1,1)"><path fill="none" stroke="#003399" d="M 1040 472 L 714 472" stroke-miterlimit="10"/></g><g transform="translate(2,-14) scale(1,1)"><path fill="none" stroke="#003399" d="M 724.1626748576241 467.790482243984 L 714 472 L 724.1626748576241 476.209517756016" stroke-miterlimit="10"/></g><g transform="translate(2,-14) scale(1,1)"><path fill="none" stroke="#ff0000" d="M 1040 480 L 816 480 L 816 568 L 714 568" stroke-miterlimit="10"/></g><g transform="translate(2,-14) scale(1,1)"><path fill="none" stroke="#ff0000" d="M 724.1626748576241 563.790482243984 L 714 568 L 724.1626748576241 572.209517756016" stroke-miterlimit="10"/></g><g transform="translate(2,-14) scale(1,1)"><path fill="none" stroke="#008400" d="M 1040 488 L 864 488 L 864 784 L 717 784" stroke-miterlimit="10"/></g><g transform="translate(2,-14) scale(1,1)"><path fill="none" stroke="#008400" d="M 727.1626748576241 779.790482243984 L 717 784 L 727.1626748576241 788.209517756016" stroke-miterlimit="10"/></g><g transform="translate(2,-14) scale(1,1)"><path fill="none" stroke="#000000" d="M 1361 744 L 1560 744 L 1560 928 L 717 928" stroke-miterlimit="10"/></g><g transform="translate(2,-14) scale(1,1)"><path fill="none" stroke="#000000" d="M 727.1626748576241 923.790482243984 L 717 928 L 727.1626748576241 932.209517756016" stroke-miterlimit="10"/></g><g transform="translate(2,-14) scale(1,1)"><path fill="none" stroke="#008400" d="M 1040 760 L 864 760 L 864 784 L 717 784" stroke-miterlimit="10"/></g><g transform="translate(2,-14) scale(1,1)"><path fill="none" stroke="#008400" d="M 727.1626748576241 779.790482243984 L 717 784 L 727.1626748576241 788.209517756016" stroke-miterlimit="10"/></g><g transform="translate(2,-14) scale(1,1)"><path fill="none" stroke="#ff0000" d="M 1040 736 L 816 736 L 816 568 L 714 568" stroke-miterlimit="10"/></g><g transform="translate(2,-14) scale(1,1)"><path fill="none" stroke="#ff0000" d="M 724.1626748576241 563.790482243984 L 714 568 L 724.1626748576241 572.209517756016" stroke-miterlimit="10"/></g><g transform="translate(2,-14) scale(1,1)"><path fill="none" stroke="#ff0000" d="M 262 680 L 576 680 L 576 568 L 663 568" stroke-miterlimit="10"/></g><g transform="translate(2,-14) scale(1,1)"><path fill="none" stroke="#ff0000" d="M 652.8373251423759 572.209517756016 L 663 568 L 652.8373251423758 563.790482243984" stroke-miterlimit="10"/></g><g transform="translate(2,-14) scale(1,1)"><path fill="none" stroke="#000000" d="M 1413 832 L 1560 832 L 1560 928 L 717 928" stroke-miterlimit="10"/></g><g transform="translate(2,-14) scale(1,1)"><path fill="none" stroke="#000000" d="M 727.1626748576241 923.790482243984 L 717 928 L 727.1626748576241 932.209517756016" stroke-miterlimit="10"/></g><g transform="translate(2,-14) scale(1,1)"><path fill="none" stroke="#008400" d="M 1040 840 L 864 840 L 864 784 L 717 784" stroke-miterlimit="10"/></g><g transform="translate(2,-14) scale(1,1)"><path fill="none" stroke="#008400" d="M 727.1626748576241 779.790482243984 L 717 784 L 727.1626748576241 788.209517756016" stroke-miterlimit="10"/></g><g transform="translate(2,-14) scale(1,1)"><path fill="none" stroke="#ff0000" d="M 1040 816 L 816 816 L 816 568 L 714 568" stroke-miterlimit="10"/></g><g transform="translate(2,-14) scale(1,1)"><path fill="none" stroke="#ff0000" d="M 724.1626748576241 563.790482243984 L 714 568 L 724.1626748576241 572.209517756016" stroke-miterlimit="10"/></g><g transform="translate(2,-14) scale(1,1)"><path fill="none" stroke="#000000" d="M 101 464 L 8 464 L 8 928 L 659 928" stroke-miterlimit="10"/></g><g transform="translate(2,-14) scale(1,1)"><path fill="none" stroke="#000000" d="M 648.8373251423759 932.209517756016 L 659 928 L 648.8373251423758 923.790482243984" stroke-miterlimit="10"/></g><g transform="translate(2,-14) scale(1,1)"><path fill="none" stroke="#008400" d="M 263 456 L 392 456 L 392 784 L 659 784" stroke-miterlimit="10"/></g><g transform="translate(2,-14) scale(1,1)"><path fill="none" stroke="#008400" d="M 648.8373251423759 788.209517756016 L 659 784 L 648.8373251423758 779.790482243984" stroke-miterlimit="10"/></g><g transform="translate(2,-14) scale(1,1)"><path fill="none" stroke="#ff0000" d="M 263 470 L 576 470 L 576 568 L 663 568" stroke-miterlimit="10"/></g><g transform="translate(2,-14) scale(1,1)"><path fill="none" stroke="#ff0000" d="M 652.8373251423759 572.209517756016 L 663 568 L 652.8373251423758 563.790482243984" stroke-miterlimit="10"/></g><g transform="translate(2,-14) scale(1,1)"><path fill="none" stroke="#008400" d="M 263 518 L 392 518 L 392 784 L 659 784" stroke-miterlimit="10"/></g><g transform="translate(2,-14) scale(1,1)"><path fill="none" stroke="#008400" d="M 648.8373251423759 788.209517756016 L 659 784 L 648.8373251423758 779.790482243984" stroke-miterlimit="10"/></g><g transform="translate(2,-14) scale(1,1)"><path fill="none" stroke="#ff0000" d="M 263 536 L 576 536 L 576 568 L 663 568" stroke-miterlimit="10"/></g><g transform="translate(2,-14) scale(1,1)"><path fill="none" stroke="#ff0000" d="M 652.8373251423759 572.209517756016 L 663 568 L 652.8373251423758 563.790482243984" stroke-miterlimit="10"/></g><g transform="translate(2,-14) scale(1,1)"><path fill="none" stroke="#000000" d="M 101 528 L 8 528 L 8 928 L 659 928" stroke-miterlimit="10"/></g><g transform="translate(2,-14) scale(1,1)"><path fill="none" stroke="#000000" d="M 648.8373251423759 932.209517756016 L 659 928 L 648.8373251423758 923.790482243984" stroke-miterlimit="10"/></g><g transform="translate(2,-14) scale(1,1)"><path fill="none" stroke="#000000" d="M 56 408 L 8 408 L 8 926 L 659 926" stroke-miterlimit="10"/></g><g transform="translate(2,-14) scale(1,1)"><path fill="none" stroke="#000000" d="M 648.8373251423759 930.209517756016 L 659 926 L 648.8373251423758 921.790482243984" stroke-miterlimit="10"/></g><g transform="translate(2,-14) scale(1,1)"><path fill="none" stroke="#000000" d="M 29 632 L 8 632 L 8 926 L 659 926" stroke-miterlimit="10"/></g><g transform="translate(2,-14) scale(1,1)"><path fill="none" stroke="#000000" d="M 648.8373251423759 930.209517756016 L 659 926 L 648.8373251423758 921.790482243984" stroke-miterlimit="10"/></g><g transform="translate(2,-14) scale(1,1)"><path fill="none" stroke="#008400" d="M 308 400 L 392 400 L 392 784 L 659 784" stroke-miterlimit="10"/></g><g transform="translate(2,-14) scale(1,1)"><path fill="none" stroke="#008400" d="M 648.8373251423759 788.209517756016 L 659 784 L 648.8373251423758 779.790482243984" stroke-miterlimit="10"/></g><g transform="translate(2,-14) scale(1,1)"><path fill="none" stroke="#ff0000" d="M 308 392 L 576 392 L 576 568 L 663 568" stroke-miterlimit="10"/></g><g transform="translate(2,-14) scale(1,1)"><path fill="none" stroke="#ff0000" d="M 652.8373251423759 572.209517756016 L 663 568 L 652.8373251423758 563.790482243984" stroke-miterlimit="10"/></g><g transform="translate(2,-14) scale(1,1)"><path fill="none" stroke="#ad00ad" d="M 308 376 L 647 376" stroke-miterlimit="10"/></g><g transform="translate(2,-14) scale(1,1)"><path fill="none" stroke="#ad00ad" d="M 636.8373251423759 380.209517756016 L 647 376 L 636.8373251423758 371.790482243984" stroke-miterlimit="10"/></g><g transform="translate(2,-14) scale(1,1)"><path fill="none" stroke="#008400" d="M 335 622 L 392 622 L 392 784 L 659 784" stroke-miterlimit="10"/></g><g transform="translate(2,-14) scale(1,1)"><path fill="none" stroke="#008400" d="M 648.8373251423759 788.209517756016 L 659 784 L 648.8373251423758 779.790482243984" stroke-miterlimit="10"/></g><g transform="translate(2,-14) scale(1,1)"><path fill="none" stroke="#ff0000" d="M 335 640 L 576 640 L 576 568 L 663 568" stroke-miterlimit="10"/></g><g transform="translate(2,-14) scale(1,1)"><path fill="none" stroke="#ff0000" d="M 652.8373251423759 572.209517756016 L 663 568 L 652.8373251423758 563.790482243984" stroke-miterlimit="10"/></g><g transform="translate(2,-14) scale(1,1)"><path fill="none" stroke="#003399" d="M 335 608 L 608 608 L 608 472 L 663 472" stroke-miterlimit="10"/></g><g transform="translate(2,-14) scale(1,1)"><path fill="none" stroke="#003399" d="M 652.8373251423759 476.209517756016 L 663 472 L 652.8373251423758 467.790482243984" stroke-miterlimit="10"/></g><g transform="translate(2,-14) scale(1,1)"><path fill="none" stroke="#000000" d="M 104 816 L 8 816 L 8 928 L 659 928" stroke-miterlimit="10"/></g><g transform="translate(2,-14) scale(1,1)"><path fill="none" stroke="#000000" d="M 648.8373251423759 932.209517756016 L 659 928 L 648.8373251423758 923.790482243984" stroke-miterlimit="10"/></g></g></svg>