<svg version="1.1" xmlns="http://www.w3.org/2000/svg" xmlns:xlink="http://www.w3.org/1999/xlink" width="1184.83544921875" height="668"><defs/><g><g transform="translate(-15,-9) scale(1,1)"><rect fill="#C0C0C0" stroke="none" x="32" y="26" width="62.4599609375" height="44" opacity="0.2"/></g><g transform="translate(-15,-9) scale(1,1)"><rect fill="#ff0000" stroke="none" x="25" y="19" width="62.4599609375" height="44"/></g><g transform="translate(-15,-9) scale(1,1)"><path fill="none" stroke="#000000" d="M 25 19 L 87.4599609375 19 L 87.4599609375 63 L 25 63 L 25 19 Z Z" stroke-miterlimit="10"/></g><g transform="translate(-15,-9) scale(1,1)"><path fill="none" stroke="#000000" d="M 25 44 L 87.4599609375 44" stroke-miterlimit="10"/></g><g transform="translate(-15,-9) scale(1,1)"><path fill="none" stroke="#000000" d="M 25 54 L 87.4599609375 54" stroke-miterlimit="10"/></g><g transform="translate(-15,-9) scale(1,1)"><g><path fill="none" stroke="none"/><text fill="#000000" stroke="none" font-family="Arial" font-size="13px" font-style="normal" font-weight="bold" text-decoration="none" x="31.299560546875" y="38.5">template</text></g></g><g transform="translate(-15,-9) scale(1,1)"><rect fill="#C0C0C0" stroke="none" x="120" y="26" width="79.052734375" height="44" opacity="0.2"/></g><g transform="translate(-15,-9) scale(1,1)"><rect fill="#27b227" stroke="none" x="113" y="19" width="79.052734375" height="44"/></g><g transform="translate(-15,-9) scale(1,1)"><path fill="none" stroke="#000000" d="M 113 19 L 192.052734375 19 L 192.052734375 63 L 113 63 L 113 19 Z Z" stroke-miterlimit="10"/></g><g transform="translate(-15,-9) scale(1,1)"><path fill="none" stroke="#000000" d="M 113 44 L 192.052734375 44" stroke-miterlimit="10"/></g><g transform="translate(-15,-9) scale(1,1)"><path fill="none" stroke="#000000" d="M 113 54 L 192.052734375 54" stroke-miterlimit="10"/></g><g transform="translate(-15,-9) scale(1,1)"><g><path fill="none" stroke="none"/><text fill="#000000" stroke="none" font-family="Arial" font-size="13px" font-style="normal" font-weight="bold" text-decoration="none" x="120.365966796875" y="38.5">component</text></g></g><g transform="translate(-15,-9) scale(1,1)"><rect fill="#C0C0C0" stroke="none" x="216" y="26" width="53.82080078125" height="44" opacity="0.2"/></g><g transform="translate(-15,-9) scale(1,1)"><rect fill="#5656ff" stroke="none" x="209" y="19" width="53.82080078125" height="44"/></g><g transform="translate(-15,-9) scale(1,1)"><path fill="none" stroke="#000000" d="M 209 19 L 262.82080078125 19 L 262.82080078125 63 L 209 63 L 209 19 Z Z" stroke-miterlimit="10"/></g><g transform="translate(-15,-9) scale(1,1)"><path fill="none" stroke="#000000" d="M 209 44 L 262.82080078125 44" stroke-miterlimit="10"/></g><g transform="translate(-15,-9) scale(1,1)"><path fill="none" stroke="#000000" d="M 209 54 L 262.82080078125 54" stroke-miterlimit="10"/></g><g transform="translate(-15,-9) scale(1,1)"><g><path fill="none" stroke="none"/><text fill="#000000" stroke="none" font-family="Arial" font-size="13px" font-style="normal" font-weight="bold" text-decoration="none" x="215.32177734375" y="38.5">service</text></g></g><g transform="translate(-15,-9) scale(1,1)"><rect fill="#C0C0C0" stroke="none" x="217" y="150" width="53.8017578125" height="44" opacity="0.2"/></g><g transform="translate(-15,-9) scale(1,1)"><rect fill="#5656ff" stroke="none" x="210" y="143" width="53.8017578125" height="44"/></g><g transform="translate(-15,-9) scale(1,1)"><path fill="none" stroke="#000000" d="M 210 143 L 263.8017578125 143 L 263.8017578125 187 L 210 187 L 210 143 Z Z" stroke-miterlimit="10"/></g><g transform="translate(-15,-9) scale(1,1)"><path fill="none" stroke="#000000" d="M 210 168 L 263.8017578125 168" stroke-miterlimit="10"/></g><g transform="translate(-15,-9) scale(1,1)"><path fill="none" stroke="#000000" d="M 210 178 L 263.8017578125 178" stroke-miterlimit="10"/></g><g transform="translate(-15,-9) scale(1,1)"><g><path fill="none" stroke="none"/><text fill="#000000" stroke="none" font-family="Arial" font-size="13px" font-style="normal" font-weight="bold" text-decoration="none" x="215.588623046875" y="162.5">Review</text></g></g><g transform="translate(-15,-9) scale(1,1)"><rect fill="#C0C0C0" stroke="none" x="713" y="231" width="50.919921875" height="44" opacity="0.2"/></g><g transform="translate(-15,-9) scale(1,1)"><rect fill="#5656ff" stroke="none" x="706" y="224" width="50.919921875" height="44"/></g><g transform="translate(-15,-9) scale(1,1)"><path fill="none" stroke="#000000" d="M 706 224 L 756.919921875 224 L 756.919921875 268 L 706 268 L 706 224 Z Z" stroke-miterlimit="10"/></g><g transform="translate(-15,-9) scale(1,1)"><path fill="none" stroke="#000000" d="M 706 249 L 756.919921875 249" stroke-miterlimit="10"/></g><g transform="translate(-15,-9) scale(1,1)"><path fill="none" stroke="#000000" d="M 706 259 L 756.919921875 259" stroke-miterlimit="10"/></g><g transform="translate(-15,-9) scale(1,1)"><g><path fill="none" stroke="none"/><text fill="#000000" stroke="none" font-family="Arial" font-size="13px" font-style="normal" font-weight="bold" text-decoration="none" x="716.285888671875" y="243.5">Hotel</text></g></g><g transform="translate(-15,-9) scale(1,1)"><rect fill="#C0C0C0" stroke="none" x="713" y="374" width="50.919921875" height="44" opacity="0.2"/></g><g transform="translate(-15,-9) scale(1,1)"><rect fill="#5656ff" stroke="none" x="706" y="367" width="50.919921875" height="44"/></g><g transform="translate(-15,-9) scale(1,1)"><path fill="none" stroke="#000000" d="M 706 367 L 756.919921875 367 L 756.919921875 411 L 706 411 L 706 367 Z Z" stroke-miterlimit="10"/></g><g transform="translate(-15,-9) scale(1,1)"><path fill="none" stroke="#000000" d="M 706 392 L 756.919921875 392" stroke-miterlimit="10"/></g><g transform="translate(-15,-9) scale(1,1)"><path fill="none" stroke="#000000" d="M 706 402 L 756.919921875 402" stroke-miterlimit="10"/></g><g transform="translate(-15,-9) scale(1,1)"><g><path fill="none" stroke="none"/><text fill="#000000" stroke="none" font-family="Arial" font-size="13px" font-style="normal" font-weight="bold" text-decoration="none" x="714.121337890625" y="386.5">Room</text></g></g><g transform="translate(-15,-9) scale(1,1)"><rect fill="#C0C0C0" stroke="none" x="705" y="478" width="50.919921875" height="44" opacity="0.2"/></g><g transform="translate(-15,-9) scale(1,1)"><rect fill="#5656ff" stroke="none" x="698" y="471" width="50.919921875" height="44"/></g><g transform="translate(-15,-9) scale(1,1)"><path fill="none" stroke="#000000" d="M 698 471 L 748.919921875 471 L 748.919921875 515 L 698 515 L 698 471 Z Z" stroke-miterlimit="10"/></g><g transform="translate(-15,-9) scale(1,1)"><path fill="none" stroke="#000000" d="M 698 496 L 748.919921875 496" stroke-miterlimit="10"/></g><g transform="translate(-15,-9) scale(1,1)"><path fill="none" stroke="#000000" d="M 698 506 L 748.919921875 506" stroke-miterlimit="10"/></g><g transform="translate(-15,-9) scale(1,1)"><g><path fill="none" stroke="none"/><text fill="#000000" stroke="none" font-family="Arial" font-size="13px" font-style="normal" font-weight="bold" text-decoration="none" x="709.736328125" y="490.5">User</text></g></g><g transform="translate(-15,-9) scale(1,1)"><rect fill="#C0C0C0" stroke="none" x="713" y="630" width="58.14990234375" height="44" opacity="0.2"/></g><g transform="translate(-15,-9) scale(1,1)"><rect fill="#5656ff" stroke="none" x="706" y="623" width="58.14990234375" height="44"/></g><g transform="translate(-15,-9) scale(1,1)"><path fill="none" stroke="#000000" d="M 706 623 L 764.14990234375 623 L 764.14990234375 667 L 706 667 L 706 623 Z Z" stroke-miterlimit="10"/></g><g transform="translate(-15,-9) scale(1,1)"><path fill="none" stroke="#000000" d="M 706 648 L 764.14990234375 648" stroke-miterlimit="10"/></g><g transform="translate(-15,-9) scale(1,1)"><path fill="none" stroke="#000000" d="M 706 658 L 764.14990234375 658" stroke-miterlimit="10"/></g><g transform="translate(-15,-9) scale(1,1)"><g><path fill="none" stroke="none"/><text fill="#000000" stroke="none" font-family="Arial" font-size="13px" font-style="normal" font-weight="bold" text-decoration="none" x="719.1708984375" y="642.5">Login</text></g></g><g transform="translate(-15,-9) scale(1,1)"><rect fill="#C0C0C0" stroke="none" x="33" y="390" width="111.54638671875" height="44" opacity="0.2"/></g><g transform="translate(-15,-9) scale(1,1)"><rect fill="#ff0000" stroke="none" x="26" y="383" width="111.54638671875" height="44"/></g><g transform="translate(-15,-9) scale(1,1)"><path fill="none" stroke="#000000" d="M 26 383 L 137.54638671875 383 L 137.54638671875 427 L 26 427 L 26 383 Z Z" stroke-miterlimit="10"/></g><g transform="translate(-15,-9) scale(1,1)"><path fill="none" stroke="#000000" d="M 26 408 L 137.54638671875 408" stroke-miterlimit="10"/></g><g transform="translate(-15,-9) scale(1,1)"><path fill="none" stroke="#000000" d="M 26 418 L 137.54638671875 418" stroke-miterlimit="10"/></g><g transform="translate(-15,-9) scale(1,1)"><g><path fill="none" stroke="none"/><text fill="#000000" stroke="none" font-family="Arial" font-size="13px" font-style="normal" font-weight="bold" text-decoration="none" x="35.162353515625" y="402.5">hotelInformation</text></g></g><g transform="translate(-15,-9) scale(1,1)"><rect fill="#C0C0C0" stroke="none" x="193" y="390" width="111.54638671875" height="44" opacity="0.2"/></g><g transform="translate(-15,-9) scale(1,1)"><rect fill="#27b227" stroke="none" x="186" y="383" width="111.54638671875" height="44"/></g><g transform="translate(-15,-9) scale(1,1)"><path fill="none" stroke="#000000" d="M 186 383 L 297.54638671875 383 L 297.54638671875 427 L 186 427 L 186 383 Z Z" stroke-miterlimit="10"/></g><g transform="translate(-15,-9) scale(1,1)"><path fill="none" stroke="#000000" d="M 186 408 L 297.54638671875 408" stroke-miterlimit="10"/></g><g transform="translate(-15,-9) scale(1,1)"><path fill="none" stroke="#000000" d="M 186 418 L 297.54638671875 418" stroke-miterlimit="10"/></g><g transform="translate(-15,-9) scale(1,1)"><g><path fill="none" stroke="none"/><text fill="#000000" stroke="none" font-family="Arial" font-size="13px" font-style="normal" font-weight="bold" text-decoration="none" x="195.162353515625" y="402.5">hotelInformation</text></g></g><g transform="translate(-15,-9) scale(1,1)"><rect fill="#C0C0C0" stroke="none" x="37" y="238" width="92.08447265625" height="44" opacity="0.2"/></g><g transform="translate(-15,-9) scale(1,1)"><rect fill="#ff0000" stroke="none" x="30" y="231" width="92.08447265625" height="44"/></g><g transform="translate(-15,-9) scale(1,1)"><path fill="none" stroke="#000000" d="M 30 231 L 122.08447265625 231 L 122.08447265625 275 L 30 275 L 30 231 Z Z" stroke-miterlimit="10"/></g><g transform="translate(-15,-9) scale(1,1)"><path fill="none" stroke="#000000" d="M 30 256 L 122.08447265625 256" stroke-miterlimit="10"/></g><g transform="translate(-15,-9) scale(1,1)"><path fill="none" stroke="#000000" d="M 30 266 L 122.08447265625 266" stroke-miterlimit="10"/></g><g transform="translate(-15,-9) scale(1,1)"><g><path fill="none" stroke="none"/><text fill="#000000" stroke="none" font-family="Arial" font-size="13px" font-style="normal" font-weight="bold" text-decoration="none" x="37.385009765625" y="250.5">hotelReviews</text></g></g><g transform="translate(-15,-9) scale(1,1)"><rect fill="#C0C0C0" stroke="none" x="197" y="246" width="92.08447265625" height="44" opacity="0.2"/></g><g transform="translate(-15,-9) scale(1,1)"><rect fill="#27b227" stroke="none" x="190" y="239" width="92.08447265625" height="44"/></g><g transform="translate(-15,-9) scale(1,1)"><path fill="none" stroke="#000000" d="M 190 239 L 282.08447265625 239 L 282.08447265625 283 L 190 283 L 190 239 Z Z" stroke-miterlimit="10"/></g><g transform="translate(-15,-9) scale(1,1)"><path fill="none" stroke="#000000" d="M 190 264 L 282.08447265625 264" stroke-miterlimit="10"/></g><g transform="translate(-15,-9) scale(1,1)"><path fill="none" stroke="#000000" d="M 190 274 L 282.08447265625 274" stroke-miterlimit="10"/></g><g transform="translate(-15,-9) scale(1,1)"><g><path fill="none" stroke="none"/><text fill="#000000" stroke="none" font-family="Arial" font-size="13px" font-style="normal" font-weight="bold" text-decoration="none" x="197.385009765625" y="258.5">hotelReviews</text></g></g><g transform="translate(-15,-9) scale(1,1)"><rect fill="#C0C0C0" stroke="none" x="1125" y="438" width="70.41357421875" height="44" opacity="0.2"/></g><g transform="translate(-15,-9) scale(1,1)"><rect fill="#ff0000" stroke="none" x="1118" y="431" width="70.41357421875" height="44"/></g><g transform="translate(-15,-9) scale(1,1)"><path fill="none" stroke="#000000" d="M 1118 431 L 1188.41357421875 431 L 1188.41357421875 475 L 1118 475 L 1118 431 Z Z" stroke-miterlimit="10"/></g><g transform="translate(-15,-9) scale(1,1)"><path fill="none" stroke="#000000" d="M 1118 456 L 1188.41357421875 456" stroke-miterlimit="10"/></g><g transform="translate(-15,-9) scale(1,1)"><path fill="none" stroke="#000000" d="M 1118 466 L 1188.41357421875 466" stroke-miterlimit="10"/></g><g transform="translate(-15,-9) scale(1,1)"><g><path fill="none" stroke="none"/><text fill="#000000" stroke="none" font-family="Arial" font-size="13px" font-style="normal" font-weight="bold" text-decoration="none" x="1123.937744140625" y="450.5">mainPage</text></g></g><g transform="translate(-15,-9) scale(1,1)"><rect fill="#C0C0C0" stroke="none" x="985" y="446" width="70.41357421875" height="44" opacity="0.2"/></g><g transform="translate(-15,-9) scale(1,1)"><rect fill="#27b227" stroke="none" x="978" y="439" width="70.41357421875" height="44"/></g><g transform="translate(-15,-9) scale(1,1)"><path fill="none" stroke="#000000" d="M 978 439 L 1048.41357421875 439 L 1048.41357421875 483 L 978 483 L 978 439 Z Z" stroke-miterlimit="10"/></g><g transform="translate(-15,-9) scale(1,1)"><path fill="none" stroke="#000000" d="M 978 464 L 1048.41357421875 464" stroke-miterlimit="10"/></g><g transform="translate(-15,-9) scale(1,1)"><path fill="none" stroke="#000000" d="M 978 474 L 1048.41357421875 474" stroke-miterlimit="10"/></g><g transform="translate(-15,-9) scale(1,1)"><g><path fill="none" stroke="none"/><text fill="#000000" stroke="none" font-family="Arial" font-size="13px" font-style="normal" font-weight="bold" text-decoration="none" x="983.937744140625" y="458.5">mainPage</text></g></g><g transform="translate(-15,-9) scale(1,1)"><rect fill="#C0C0C0" stroke="none" x="197" y="310" width="73.27001953125" height="44" opacity="0.2"/></g><g transform="translate(-15,-9) scale(1,1)"><rect fill="#27b227" stroke="none" x="190" y="303" width="73.27001953125" height="44"/></g><g transform="translate(-15,-9) scale(1,1)"><path fill="none" stroke="#000000" d="M 190 303 L 263.27001953125 303 L 263.27001953125 347 L 190 347 L 190 303 Z Z" stroke-miterlimit="10"/></g><g transform="translate(-15,-9) scale(1,1)"><path fill="none" stroke="#000000" d="M 190 328 L 263.27001953125 328" stroke-miterlimit="10"/></g><g transform="translate(-15,-9) scale(1,1)"><path fill="none" stroke="#000000" d="M 190 338 L 263.27001953125 338" stroke-miterlimit="10"/></g><g transform="translate(-15,-9) scale(1,1)"><g><path fill="none" stroke="none"/><text fill="#000000" stroke="none" font-family="Arial" font-size="13px" font-style="normal" font-weight="bold" text-decoration="none" x="197.010498046875" y="322.5">notRooms</text></g></g><g transform="translate(-15,-9) scale(1,1)"><rect fill="#C0C0C0" stroke="none" x="45" y="310" width="73.27001953125" height="44" opacity="0.2"/></g><g transform="translate(-15,-9) scale(1,1)"><rect fill="#ff0000" stroke="none" x="38" y="303" width="73.27001953125" height="44"/></g><g transform="translate(-15,-9) scale(1,1)"><path fill="none" stroke="#000000" d="M 38 303 L 111.27001953125 303 L 111.27001953125 347 L 38 347 L 38 303 Z Z" stroke-miterlimit="10"/></g><g transform="translate(-15,-9) scale(1,1)"><path fill="none" stroke="#000000" d="M 38 328 L 111.27001953125 328" stroke-miterlimit="10"/></g><g transform="translate(-15,-9) scale(1,1)"><path fill="none" stroke="#000000" d="M 38 338 L 111.27001953125 338" stroke-miterlimit="10"/></g><g transform="translate(-15,-9) scale(1,1)"><g><path fill="none" stroke="none"/><text fill="#000000" stroke="none" font-family="Arial" font-size="13px" font-style="normal" font-weight="bold" text-decoration="none" x="45.010498046875" y="322.5">notRooms</text></g></g><g transform="translate(-15,-9) scale(1,1)"><rect fill="#C0C0C0" stroke="none" x="985" y="614" width="71.61962890625" height="44" opacity="0.2"/></g><g transform="translate(-15,-9) scale(1,1)"><rect fill="#27b227" stroke="none" x="978" y="607" width="71.61962890625" height="44"/></g><g transform="translate(-15,-9) scale(1,1)"><path fill="none" stroke="#000000" d="M 978 607 L 1049.61962890625 607 L 1049.61962890625 651 L 978 651 L 978 607 Z Z" stroke-miterlimit="10"/></g><g transform="translate(-15,-9) scale(1,1)"><path fill="none" stroke="#000000" d="M 978 632 L 1049.61962890625 632" stroke-miterlimit="10"/></g><g transform="translate(-15,-9) scale(1,1)"><path fill="none" stroke="#000000" d="M 978 642 L 1049.61962890625 642" stroke-miterlimit="10"/></g><g transform="translate(-15,-9) scale(1,1)"><g><path fill="none" stroke="none"/><text fill="#000000" stroke="none" font-family="Arial" font-size="13px" font-style="normal" font-weight="bold" text-decoration="none" x="984.90576171875" y="626.5">nickTaken</text></g></g><g transform="translate(-15,-9) scale(1,1)"><rect fill="#C0C0C0" stroke="none" x="1125" y="606" width="71.61962890625" height="44" opacity="0.2"/></g><g transform="translate(-15,-9) scale(1,1)"><rect fill="#ff0000" stroke="none" x="1118" y="599" width="71.61962890625" height="44"/></g><g transform="translate(-15,-9) scale(1,1)"><path fill="none" stroke="#000000" d="M 1118 599 L 1189.61962890625 599 L 1189.61962890625 643 L 1118 643 L 1118 599 Z Z" stroke-miterlimit="10"/></g><g transform="translate(-15,-9) scale(1,1)"><path fill="none" stroke="#000000" d="M 1118 624 L 1189.61962890625 624" stroke-miterlimit="10"/></g><g transform="translate(-15,-9) scale(1,1)"><path fill="none" stroke="#000000" d="M 1118 634 L 1189.61962890625 634" stroke-miterlimit="10"/></g><g transform="translate(-15,-9) scale(1,1)"><g><path fill="none" stroke="none"/><text fill="#000000" stroke="none" font-family="Arial" font-size="13px" font-style="normal" font-weight="bold" text-decoration="none" x="1124.90576171875" y="618.5">nickTaken</text></g></g><g transform="translate(-15,-9) scale(1,1)"><rect fill="#C0C0C0" stroke="none" x="985" y="526" width="71.83544921875" height="44" opacity="0.2"/></g><g transform="translate(-15,-9) scale(1,1)"><rect fill="#27b227" stroke="none" x="978" y="519" width="71.83544921875" height="44"/></g><g transform="translate(-15,-9) scale(1,1)"><path fill="none" stroke="#000000" d="M 978 519 L 1049.83544921875 519 L 1049.83544921875 563 L 978 563 L 978 519 Z Z" stroke-miterlimit="10"/></g><g transform="translate(-15,-9) scale(1,1)"><path fill="none" stroke="#000000" d="M 978 544 L 1049.83544921875 544" stroke-miterlimit="10"/></g><g transform="translate(-15,-9) scale(1,1)"><path fill="none" stroke="#000000" d="M 978 554 L 1049.83544921875 554" stroke-miterlimit="10"/></g><g transform="translate(-15,-9) scale(1,1)"><g><path fill="none" stroke="none"/><text fill="#000000" stroke="none" font-family="Arial" font-size="13px" font-style="normal" font-weight="bold" text-decoration="none" x="985.740478515625" y="538.5">loginError</text></g></g><g transform="translate(-15,-9) scale(1,1)"><rect fill="#C0C0C0" stroke="none" x="1125" y="526" width="71.83544921875" height="44" opacity="0.2"/></g><g transform="translate(-15,-9) scale(1,1)"><rect fill="#ff0000" stroke="none" x="1118" y="519" width="71.83544921875" height="44"/></g><g transform="translate(-15,-9) scale(1,1)"><path fill="none" stroke="#000000" d="M 1118 519 L 1189.83544921875 519 L 1189.83544921875 563 L 1118 563 L 1118 519 Z Z" stroke-miterlimit="10"/></g><g transform="translate(-15,-9) scale(1,1)"><path fill="none" stroke="#000000" d="M 1118 544 L 1189.83544921875 544" stroke-miterlimit="10"/></g><g transform="translate(-15,-9) scale(1,1)"><path fill="none" stroke="#000000" d="M 1118 554 L 1189.83544921875 554" stroke-miterlimit="10"/></g><g transform="translate(-15,-9) scale(1,1)"><g><path fill="none" stroke="none"/><text fill="#000000" stroke="none" font-family="Arial" font-size="13px" font-style="normal" font-weight="bold" text-decoration="none" x="1125.740478515625" y="538.5">loginError</text></g></g><g transform="translate(-15,-9) scale(1,1)"><path fill="none" stroke="#000000" d="M 1050 540 L 1118 540" stroke-miterlimit="10"/></g><g transform="translate(-15,-9) scale(1,1)"><path fill="none" stroke="#000000" d="M 1107.837325142376 544.209517756016 L 1118 540 L 1107.837325142376 535.790482243984" stroke-miterlimit="10"/></g><g transform="translate(-15,-9) scale(1,1)"><path fill="none" stroke="#000000" d="M 1050 620 L 1118 620" stroke-miterlimit="10"/></g><g transform="translate(-15,-9) scale(1,1)"><path fill="none" stroke="#000000" d="M 1107.837325142376 624.209517756016 L 1118 620 L 1107.837325142376 615.790482243984" stroke-miterlimit="10"/></g><g transform="translate(-15,-9) scale(1,1)"><path fill="none" stroke="#000000" d="M 190 324 L 111 324" stroke-miterlimit="10"/></g><g transform="translate(-15,-9) scale(1,1)"><path fill="none" stroke="#000000" d="M 121.16267485762415 319.790482243984 L 111 324 L 121.16267485762415 328.209517756016" stroke-miterlimit="10"/></g><g transform="translate(-15,-9) scale(1,1)"><path fill="none" stroke="#000000" d="M 186 405 L 138 405" stroke-miterlimit="10"/></g><g transform="translate(-15,-9) scale(1,1)"><path fill="none" stroke="#000000" d="M 148.16267485762415 400.790482243984 L 138 405 L 148.16267485762415 409.209517756016" stroke-miterlimit="10"/></g><g transform="translate(-15,-9) scale(1,1)"><path fill="none" stroke="#000000" d="M 190 253 L 122 253" stroke-miterlimit="10"/></g><g transform="translate(-15,-9) scale(1,1)"><path fill="none" stroke="#000000" d="M 132.16267485762415 248.790482243984 L 122 253 L 132.16267485762415 257.209517756016" stroke-miterlimit="10"/></g><g transform="translate(-15,-9) scale(1,1)"><path fill="none" stroke="#000000" d="M 1048 453 L 1118 453" stroke-miterlimit="10"/></g><g transform="translate(-15,-9) scale(1,1)"><path fill="none" stroke="#000000" d="M 1107.837325142376 457.209517756016 L 1118 453 L 1107.837325142376 448.790482243984" stroke-miterlimit="10"/></g><g transform="translate(-15,-9) scale(1,1)"><path fill="none" stroke="#000000" d="M 236 238 L 236 188" stroke-miterlimit="10"/></g><g transform="translate(-15,-9) scale(1,1)"><path fill="none" stroke="#000000" d="M 240.209517756016 198.16267485762415 L 236 188 L 231.790482243984 198.16267485762415" stroke-miterlimit="10"/></g><g transform="translate(-15,-9) scale(1,1)"><path fill="none" stroke="#000000" d="M 282 248 L 706 248" stroke-miterlimit="10"/></g><g transform="translate(-15,-9) scale(1,1)"><path fill="none" stroke="#000000" d="M 695.8373251423759 252.209517756016 L 706 248 L 695.8373251423758 243.790482243984" stroke-miterlimit="10"/></g><g transform="translate(-15,-9) scale(1,1)"><path fill="none" stroke="#ff0000" d="M 282 272 L 674 272 L 674 493 L 698 493" stroke-miterlimit="10"/></g><g transform="translate(-15,-9) scale(1,1)"><path fill="none" stroke="#ff0000" d="M 687.8373251423759 497.209517756016 L 698 493 L 687.8373251423758 488.790482243984" stroke-miterlimit="10"/></g><g transform="translate(-15,-9) scale(1,1)"><path fill="none" stroke="#008400" d="M 282 279 L 602 279 L 602 645 L 706 645" stroke-miterlimit="10"/></g><g transform="translate(-15,-9) scale(1,1)"><path fill="none" stroke="#008400" d="M 695.8373251423759 649.209517756016 L 706 645 L 695.8373251423758 640.790482243984" stroke-miterlimit="10"/></g><g transform="translate(-15,-9) scale(1,1)"><path fill="none" stroke="#ff0000" d="M 263 335 L 578 335 L 578 493 L 698 493" stroke-miterlimit="10"/></g><g transform="translate(-15,-9) scale(1,1)"><path fill="none" stroke="#ff0000" d="M 687.8373251423759 497.209517756016 L 698 493 L 687.8373251423758 488.790482243984" stroke-miterlimit="10"/></g><g transform="translate(-15,-9) scale(1,1)"><path fill="none" stroke="#008400" d="M 263 343 L 570 343 L 570 645 L 706 645" stroke-miterlimit="10"/></g><g transform="translate(-15,-9) scale(1,1)"><path fill="none" stroke="#008400" d="M 695.8373251423759 649.209517756016 L 706 645 L 695.8373251423758 640.790482243984" stroke-miterlimit="10"/></g><g transform="translate(-15,-9) scale(1,1)"><path fill="none" stroke="#000000" d="M 263 327 L 584 327 L 584 384 L 706 384" stroke-miterlimit="10"/></g><g transform="translate(-15,-9) scale(1,1)"><path fill="none" stroke="#000000" d="M 695.8373251423759 388.209517756016 L 706 384 L 695.8373251423758 379.790482243984" stroke-miterlimit="10"/></g><g transform="translate(-15,-9) scale(1,1)"><path fill="none" stroke="#000000" d="M 298 403 L 706 403" stroke-miterlimit="10"/></g><g transform="translate(-15,-9) scale(1,1)"><path fill="none" stroke="#000000" d="M 695.8373251423759 407.209517756016 L 706 403 L 695.8373251423758 398.790482243984" stroke-miterlimit="10"/></g><g transform="translate(-15,-9) scale(1,1)"><path fill="none" stroke="#008400" d="M 269 427 L 269 645 L 706 645" stroke-miterlimit="10"/></g><g transform="translate(-15,-9) scale(1,1)"><path fill="none" stroke="#008400" d="M 695.8373251423759 649.209517756016 L 706 645 L 695.8373251423758 640.790482243984" stroke-miterlimit="10"/></g><g transform="translate(-15,-9) scale(1,1)"><path fill="none" stroke="#000000" d="M 1002 439 L 1002 248 L 757 248" stroke-miterlimit="10"/></g><g transform="translate(-15,-9) scale(1,1)"><path fill="none" stroke="#000000" d="M 767.1626748576241 243.790482243984 L 757 248 L 767.1626748576241 252.209517756016" stroke-miterlimit="10"/></g><g transform="translate(-15,-9) scale(1,1)"><path fill="none" stroke="#ff0000" d="M 978 483 L 978 496 L 749 496" stroke-miterlimit="10"/></g><g transform="translate(-15,-9) scale(1,1)"><path fill="none" stroke="#ff0000" d="M 759.1626748576241 491.790482243984 L 749 496 L 759.1626748576241 500.209517756016" stroke-miterlimit="10"/></g><g transform="translate(-15,-9) scale(1,1)"><path fill="none" stroke="#008400" d="M 978 477 L 832 477 L 832 648 L 764 648" stroke-miterlimit="10"/></g><g transform="translate(-15,-9) scale(1,1)"><path fill="none" stroke="#008400" d="M 774.1626748576241 643.790482243984 L 764 648 L 774.1626748576241 652.209517756016" stroke-miterlimit="10"/></g><g transform="translate(-15,-9) scale(1,1)"><path fill="none" stroke="#008400" d="M 978 549 L 848 549 L 848 648 L 764 648" stroke-miterlimit="10"/></g><g transform="translate(-15,-9) scale(1,1)"><path fill="none" stroke="#008400" d="M 774.1626748576241 643.790482243984 L 764 648 L 774.1626748576241 652.209517756016" stroke-miterlimit="10"/></g><g transform="translate(-15,-9) scale(1,1)"><path fill="none" stroke="#008400" d="M 978 648 L 764 648" stroke-miterlimit="10"/></g><g transform="translate(-15,-9) scale(1,1)"><path fill="none" stroke="#008400" d="M 774.1626748576241 643.790482243984 L 764 648 L 774.1626748576241 652.209517756016" stroke-miterlimit="10"/></g></g></svg>